<?xml version="1.0" standalone="no"?>
<!DOCTYPE svg PUBLIC "-//W3C//DTD SVG 20010904//EN"
 "http://www.w3.org/TR/2001/REC-SVG-20010904/DTD/svg10.dtd">
<svg version="1.0" xmlns="http://www.w3.org/2000/svg"
 width="3047.000000pt" height="911.000000pt" viewBox="0 0 3047.000000 911.000000"
 preserveAspectRatio="xMidYMid meet">

<g transform="translate(0.000000,911.000000) scale(0.100000,-0.100000)"
fill="#000000" stroke="none">
<path d="M16126 6553 c-13 -98 -416 -3955 -416 -3977 0 -18 7 -25 32 -30 17
-3 33 -4 36 -1 4 4 432 4038 428 4041 0 1 -17 4 -38 8 l-36 7 -6 -48z"/>
<path d="M10014 6311 c-275 -43 -418 -244 -400 -561 17 -314 198 -485 511
-483 127 0 204 21 292 80 62 41 153 160 153 201 0 14 -173 77 -177 65 -12 -35
-68 -107 -104 -133 -56 -40 -109 -53 -194 -48 -153 10 -239 101 -266 281 -30
202 47 381 182 421 145 43 301 -9 353 -118 l16 -34 87 25 c49 14 90 27 92 29
11 11 -49 113 -92 156 -55 55 -103 82 -180 102 -69 18 -209 27 -273 17z"/>
<path d="M11094 6311 c-275 -43 -418 -244 -400 -561 17 -314 198 -485 511
-483 127 0 204 21 292 80 62 41 153 160 153 201 0 14 -173 77 -177 65 -12 -35
-68 -107 -104 -133 -56 -40 -109 -53 -194 -48 -153 10 -239 101 -266 281 -30
202 47 381 182 421 145 43 301 -9 353 -118 l16 -34 87 25 c49 14 90 27 92 29
11 11 -49 113 -92 156 -55 55 -103 82 -180 102 -69 18 -209 27 -273 17z"/>
<path d="M11800 5790 l0 -510 105 0 105 0 0 220 0 220 225 0 225 0 0 -220 0
-220 105 0 105 0 0 510 0 510 -105 0 -105 0 0 -205 0 -205 -225 0 -225 0 0
205 0 205 -105 0 -105 0 0 -510z"/>
<path d="M12870 5790 l0 -510 380 0 380 0 0 80 0 80 -275 0 -275 0 0 430 0
430 -105 0 -105 0 0 -510z"/>
<path d="M14075 6283 c-3 -10 -85 -232 -180 -493 -95 -261 -177 -483 -180
-492 -7 -16 2 -18 98 -18 l105 0 26 73 c14 39 34 97 45 127 l18 55 198 0 197
0 45 -127 45 -128 104 0 103 0 -38 108 c-54 150 -318 873 -326 895 -6 15 -22
17 -130 17 -108 0 -124 -2 -130 -17z m275 -575 c0 -5 -66 -8 -146 -8 -113 0
-145 3 -141 13 2 6 35 105 73 219 l68 207 73 -212 c40 -116 72 -215 73 -219z"/>
<path d="M20246 5988 c-3 -18 -8 -63 -12 -100 l-7 -68 1086 0 1085 0 6 33 c3
17 8 62 12 100 l7 67 -1086 0 -1085 0 -6 -32z"/>
<path d="M17395 5808 c-2 -7 -41 -332 -87 -723 -75 -646 -83 -727 -83 -895 0
-201 13 -283 63 -410 118 -301 403 -459 916 -511 175 -17 627 -6 771 19 294
52 492 132 661 265 177 141 313 387 374 680 11 52 60 413 110 803 49 390 93
726 96 747 l6 37 -405 0 -405 0 -6 -37 c-4 -21 -42 -351 -87 -733 -44 -382
-89 -731 -99 -775 -11 -44 -41 -123 -66 -175 -39 -78 -62 -110 -128 -176 -132
-132 -288 -194 -484 -194 -252 1 -415 113 -490 338 -45 135 -39 251 57 1055
44 379 81 691 81 693 0 2 -178 4 -395 4 -308 0 -397 -3 -400 -12z"/>
<path d="M22399 5818 c-3 -8 -13 -84 -37 -278 l-27 -215 -701 -3 -700 -2 -30
-261 c-16 -143 -28 -262 -25 -265 2 -2 285 -4 629 -4 l624 0 -6 -42 c-3 -24
-15 -124 -26 -223 -11 -99 -23 -195 -26 -212 l-5 -33 -628 0 -627 0 -53 -457
c-28 -252 -54 -470 -57 -485 l-6 -28 -391 -2 -392 -3 -22 -175 c-12 -96 -22
-185 -23 -197 l0 -23 1085 0 1085 0 4 23 c3 12 14 100 26 196 11 95 23 177 26
182 3 5 180 9 395 9 305 0 389 3 389 13 0 14 96 849 106 916 l6 44 351 -7
c258 -6 358 -11 377 -21 43 -22 101 -86 123 -134 25 -55 26 -92 13 -513 l-8
-298 795 0 794 0 6 38 c3 20 47 395 97 832 50 437 93 801 96 809 3 8 216 -366
475 -832 l471 -847 544 0 c470 0 544 2 544 15 0 19 278 2422 285 2458 l5 27
-375 0 -375 0 0 -22 c-1 -36 -188 -1629 -192 -1633 -2 -2 -204 368 -450 823
l-446 827 -568 0 -568 0 -140 -1210 -141 -1210 -6 190 c-4 105 -7 271 -8 370
-1 197 -14 283 -54 361 -51 99 -137 156 -294 194 -123 30 -124 45 -5 83 137
43 242 107 348 212 134 132 184 246 184 418 0 96 -22 178 -66 248 -112 178
-358 307 -642 338 -87 9 -1760 17 -1763 9z m1401 -483 c91 -32 170 -93 203
-156 25 -47 28 -62 24 -114 -8 -109 -77 -209 -179 -261 -103 -52 -140 -57
-487 -62 l-324 -4 6 24 c3 12 20 153 38 311 l33 288 315 -3 c281 -3 322 -6
371 -23z"/>
<path d="M9357 4853 c-4 -3 -7 -71 -7 -151 l0 -145 -22 28 c-48 61 -163 83
-244 46 -89 -41 -130 -146 -122 -316 3 -62 12 -116 23 -142 54 -133 240 -166
338 -60 l37 40 0 -46 0 -47 45 0 45 0 0 400 0 400 -43 0 c-24 0 -47 -3 -50 -7z
m-80 -293 c56 -34 68 -70 68 -205 0 -132 -11 -166 -67 -208 -35 -26 -115 -28
-152 -4 -50 33 -61 70 -61 207 0 139 15 188 64 215 38 21 110 19 148 -5z"/>
<path d="M11310 4815 l0 -45 50 0 50 0 0 45 0 45 -50 0 -50 0 0 -45z"/>
<path d="M11687 4788 l-66 -73 30 -3 c22 -3 46 8 93 42 l62 44 57 -44 c44 -36
63 -45 87 -42 l31 3 -61 73 -61 72 -53 0 -54 0 -65 -72z"/>
<path d="M13340 4815 l0 -45 50 0 50 0 0 45 0 45 -50 0 -50 0 0 -45z"/>
<path d="M5579 4816 c-101 -27 -175 -91 -221 -192 -19 -43 -22 -66 -23 -179 0
-125 1 -133 31 -195 39 -82 82 -125 164 -164 59 -28 74 -31 166 -31 96 0 105
2 170 35 48 25 81 51 111 88 24 29 43 57 43 62 0 5 -18 19 -40 30 l-39 20 -15
-27 c-19 -36 -72 -86 -116 -109 -42 -21 -157 -25 -211 -6 -51 18 -107 75 -138
141 -23 49 -26 69 -26 156 0 110 20 172 73 228 90 96 275 101 365 11 20 -20
39 -45 42 -54 5 -17 9 -17 55 -2 l49 15 -19 38 c-60 117 -255 180 -421 135z"/>
<path d="M10749 4816 c-101 -27 -175 -91 -221 -192 -19 -43 -22 -66 -23 -179
0 -125 1 -133 31 -195 39 -82 82 -125 164 -164 59 -28 74 -31 166 -31 96 0
105 2 170 35 48 25 81 51 111 88 24 29 43 57 43 62 0 5 -18 19 -40 30 l-39 20
-15 -27 c-19 -36 -72 -86 -116 -109 -42 -21 -157 -25 -211 -6 -51 18 -107 75
-138 141 -23 49 -26 69 -26 156 0 110 20 172 73 228 90 96 275 101 365 11 20
-20 39 -45 42 -54 5 -17 9 -17 55 -2 l49 15 -19 38 c-60 117 -255 180 -421
135z"/>
<path d="M7427 4763 c-2 -5 -7 -26 -11 -48 -12 -72 -15 -75 -52 -75 -32 0 -34
-2 -34 -35 0 -33 2 -35 35 -35 l35 0 0 -220 c0 -250 4 -270 66 -290 22 -8 56
-10 90 -5 54 6 54 7 54 41 l0 34 -50 0 c-38 0 -52 4 -60 19 -6 12 -10 101 -10
220 l0 201 55 0 55 0 0 35 0 35 -55 0 -55 0 0 65 0 65 -29 0 c-17 0 -32 -3
-34 -7z"/>
<path d="M6300 4641 c-131 -43 -187 -142 -178 -315 8 -135 43 -202 133 -248
50 -26 147 -34 215 -18 56 13 112 55 135 100 14 28 14 28 -25 38 -38 9 -41 8
-60 -18 -27 -39 -97 -64 -156 -57 -81 9 -130 63 -141 156 l-6 51 212 0 212 0
-7 58 c-21 177 -90 252 -239 258 -38 2 -81 0 -95 -5z m161 -84 c37 -24 66 -74
71 -122 l3 -30 -159 -3 -159 -3 7 43 c9 53 41 103 81 123 46 22 116 19 156 -8z"/>
<path d="M6955 4635 c-16 -8 -45 -32 -62 -53 l-33 -37 0 48 0 47 -45 0 -45 0
0 -290 0 -290 50 0 50 0 0 203 c0 227 6 252 69 294 37 25 100 30 146 13 48
-18 55 -57 55 -295 l0 -215 51 0 51 0 -4 233 c-3 208 -5 236 -23 271 -32 63
-64 80 -153 84 -55 2 -85 -1 -107 -13z"/>
<path d="M7850 4637 c-14 -6 -36 -34 -50 -62 l-25 -50 -3 58 -3 57 -44 0 -45
0 0 -290 0 -290 50 0 50 0 0 183 c0 200 7 243 50 290 23 26 35 31 74 32 l46 0
0 43 c0 42 0 42 -37 42 -21 0 -49 -6 -63 -13z"/>
<path d="M8193 4636 c-65 -21 -103 -54 -132 -115 -23 -50 -26 -68 -26 -166 0
-134 17 -186 80 -244 53 -48 107 -65 196 -59 163 12 251 134 236 328 -10 133
-42 198 -115 238 -53 30 -176 39 -239 18z m173 -72 c59 -28 78 -79 79 -209 0
-122 -15 -171 -67 -208 -36 -27 -114 -33 -160 -14 -63 26 -83 79 -83 217 0 97
3 121 21 154 36 70 132 97 210 60z"/>
<path d="M9750 4641 c-131 -43 -187 -142 -178 -315 8 -135 43 -202 133 -248
50 -26 147 -34 215 -18 56 13 112 55 135 100 14 28 14 28 -25 38 -38 9 -41 8
-60 -18 -27 -39 -97 -64 -156 -57 -81 9 -130 63 -141 156 l-6 51 212 0 212 0
-7 58 c-21 177 -90 252 -239 258 -38 2 -81 0 -95 -5z m161 -84 c37 -24 66 -74
71 -122 l3 -30 -159 -3 -159 -3 7 43 c9 53 41 103 81 123 46 22 116 19 156 -8z"/>
<path d="M11720 4641 c-131 -43 -187 -142 -178 -315 8 -135 43 -202 133 -248
50 -26 147 -34 215 -18 56 13 112 55 135 100 14 28 14 28 -25 38 -38 9 -41 8
-60 -18 -27 -39 -97 -64 -156 -57 -81 9 -130 63 -141 156 l-6 51 212 0 212 0
-7 58 c-21 177 -90 252 -239 258 -38 2 -81 0 -95 -5z m161 -84 c37 -24 66 -74
71 -122 l3 -30 -159 -3 -159 -3 7 43 c9 53 41 103 81 123 46 22 116 19 156 -8z"/>
<path d="M12365 4635 c-16 -8 -45 -32 -62 -53 l-33 -37 0 48 0 47 -45 0 -45 0
0 -290 0 -290 50 0 50 0 0 203 c0 227 6 252 69 294 37 25 100 30 146 13 48
-18 55 -57 55 -295 l0 -215 51 0 51 0 -4 233 c-3 208 -5 236 -23 271 -32 63
-64 80 -153 84 -55 2 -85 -1 -107 -13z"/>
<path d="M12920 4639 c-50 -20 -93 -63 -119 -118 -23 -50 -26 -68 -26 -166 0
-130 12 -171 68 -232 115 -125 344 -81 392 76 9 28 -7 41 -51 41 -26 0 -33 -6
-48 -40 -22 -49 -59 -70 -125 -70 -95 0 -141 75 -141 227 0 99 15 155 52 190
26 25 36 28 94 28 61 0 68 -2 95 -33 16 -18 29 -39 29 -47 0 -11 13 -15 51
-15 48 0 50 1 43 23 -31 100 -102 147 -221 146 -37 0 -79 -5 -93 -10z"/>
<path d="M13716 4635 c-21 -7 -51 -26 -66 -40 -27 -26 -57 -81 -49 -89 2 -2
24 -7 49 -10 44 -7 45 -6 60 26 19 41 51 58 113 58 86 0 127 -38 127 -119 l0
-38 -107 -6 c-115 -6 -183 -24 -220 -59 -36 -34 -57 -100 -50 -160 11 -87 63
-139 149 -146 84 -7 136 12 191 70 39 42 47 47 47 29 0 -35 28 -80 53 -86 13
-4 46 -5 73 -3 45 3 49 5 52 31 3 24 0 27 -27 27 -57 0 -61 14 -61 198 0 92
-5 185 -11 207 -14 50 -64 100 -114 114 -54 15 -162 13 -209 -4z m234 -330 c0
-77 -42 -140 -113 -170 -90 -37 -167 2 -167 85 0 96 48 127 198 129 l82 1 0
-45z"/>
<path d="M14306 4636 c-22 -8 -53 -28 -70 -45 -25 -25 -30 -40 -34 -88 -4 -53
-1 -62 23 -91 36 -43 84 -67 190 -93 106 -27 145 -55 145 -105 0 -48 -35 -80
-94 -89 -88 -14 -177 14 -198 61 -11 23 -16 25 -47 19 -45 -8 -45 -8 -37 -41
16 -64 114 -114 222 -114 93 0 153 18 198 60 41 38 41 39 41 110 0 70 -1 72
-37 105 -26 24 -61 41 -125 60 -145 43 -177 58 -187 86 -23 65 24 109 114 109
62 0 110 -19 136 -54 16 -22 24 -25 57 -20 20 4 37 12 37 19 0 26 -47 81 -85
100 -52 25 -193 32 -249 11z"/>
<path d="M11310 4350 l0 -290 50 0 50 0 0 290 0 290 -50 0 -50 0 0 -290z"/>
<path d="M13340 4350 l0 -290 50 0 50 0 0 290 0 290 -50 0 -50 0 0 -290z"/>
<path d="M2600 3220 l0 -380 50 0 50 0 0 175 0 175 210 0 210 0 0 -175 0 -175
50 0 50 0 0 380 0 380 -50 0 -50 0 0 -160 0 -160 -210 0 -210 0 0 160 0 160
-50 0 -50 0 0 -380z"/>
<path d="M7950 3220 l0 -380 245 0 245 0 0 40 0 40 -195 0 -195 0 0 340 0 340
-50 0 -50 0 0 -380z"/>
<path d="M12278 3238 c-81 -200 -150 -371 -154 -380 -5 -16 1 -18 44 -18 l50
0 44 110 43 110 176 0 175 0 43 -110 42 -110 51 0 c36 0 49 3 45 13 -3 6 -71
177 -152 380 l-147 367 -57 0 -56 0 -147 -362z m217 245 c3 -15 33 -95 66
-178 32 -83 59 -154 59 -158 0 -4 -63 -7 -140 -7 -77 0 -140 2 -140 5 0 2 27
73 59 157 33 84 63 166 66 181 9 34 21 35 30 0z"/>
<path d="M9207 3543 c-2 -5 -7 -26 -11 -48 -12 -72 -15 -75 -52 -75 -32 0 -34
-2 -34 -35 0 -33 2 -35 35 -35 l35 0 0 -220 c0 -250 4 -270 66 -290 22 -8 56
-10 90 -5 54 6 54 7 54 41 l0 34 -50 0 c-38 0 -52 4 -60 19 -6 12 -10 101 -10
220 l0 201 55 0 55 0 0 35 0 35 -55 0 -55 0 0 65 0 65 -29 0 c-17 0 -32 -3
-34 -7z"/>
<path d="M13327 3543 c-2 -5 -7 -26 -11 -48 -12 -72 -15 -75 -52 -75 -32 0
-34 -2 -34 -35 0 -33 2 -35 35 -35 l35 0 0 -220 c0 -250 4 -270 66 -290 22 -8
56 -10 90 -5 54 6 54 7 54 41 l0 34 -50 0 c-38 0 -52 4 -60 19 -6 12 -10 101
-10 220 l0 201 55 0 55 0 0 35 0 35 -55 0 -55 0 0 65 0 65 -29 0 c-17 0 -32
-3 -34 -7z"/>
<path d="M4174 3412 c-17 -11 -43 -35 -57 -53 l-27 -34 0 48 0 47 -45 0 -45 0
0 -290 0 -290 50 0 50 0 0 206 c0 172 3 212 17 241 34 72 134 97 190 49 l28
-24 3 -236 3 -236 50 0 49 0 0 205 c0 224 6 254 55 293 31 24 88 29 128 11 44
-20 50 -50 55 -286 l5 -223 43 0 44 0 0 223 c-1 304 -20 353 -139 365 -82 7
-118 -4 -166 -54 -37 -38 -44 -42 -49 -26 -4 10 -20 32 -37 48 -26 25 -38 29
-102 32 -58 2 -78 -1 -103 -16z"/>
<path d="M5036 3415 c-21 -7 -51 -26 -66 -40 -27 -26 -57 -81 -49 -89 2 -2 24
-7 49 -10 44 -7 45 -6 60 26 19 41 51 58 113 58 86 0 127 -38 127 -119 l0 -38
-107 -6 c-115 -6 -183 -24 -220 -59 -36 -34 -57 -100 -50 -160 11 -87 63 -139
149 -146 84 -7 136 12 191 70 39 42 47 47 47 29 0 -35 28 -80 53 -86 13 -4 46
-5 73 -3 45 3 49 5 52 31 3 24 0 27 -27 27 -57 0 -61 14 -61 198 0 92 -5 185
-11 207 -14 50 -64 100 -114 114 -54 15 -162 13 -209 -4z m234 -330 c0 -77
-42 -140 -113 -170 -90 -37 -167 2 -167 85 0 96 48 127 198 129 l82 1 0 -45z"/>
<path d="M5725 3415 c-16 -8 -45 -32 -62 -53 l-33 -37 0 48 0 47 -45 0 -45 0
0 -290 0 -290 50 0 50 0 0 203 c0 227 6 252 69 294 37 25 100 30 146 13 48
-18 55 -57 55 -295 l0 -215 51 0 51 0 -4 233 c-3 208 -5 236 -23 271 -32 63
-64 80 -153 84 -55 2 -85 -1 -107 -13z"/>
<path d="M6266 3415 c-21 -7 -51 -26 -66 -40 -27 -26 -57 -81 -49 -89 2 -2 24
-7 49 -10 44 -7 45 -6 60 26 19 41 51 58 113 58 86 0 127 -38 127 -119 l0 -38
-107 -6 c-115 -6 -183 -24 -220 -59 -36 -34 -57 -100 -50 -160 11 -87 63 -139
149 -146 84 -7 136 12 191 70 39 42 47 47 47 29 0 -35 28 -80 53 -86 13 -4 46
-5 73 -3 45 3 49 5 52 31 3 24 0 27 -27 27 -57 0 -61 14 -61 198 0 92 -5 185
-11 207 -14 50 -64 100 -114 114 -54 15 -162 13 -209 -4z m234 -330 c0 -77
-42 -140 -113 -170 -90 -37 -167 2 -167 85 0 96 48 127 198 129 l82 1 0 -45z"/>
<path d="M6856 3416 c-22 -8 -53 -28 -70 -45 -25 -25 -30 -40 -34 -88 -4 -53
-1 -62 23 -91 36 -43 84 -67 190 -93 106 -27 145 -55 145 -105 0 -48 -35 -80
-94 -89 -88 -14 -177 14 -198 61 -11 23 -16 25 -47 19 -45 -8 -45 -8 -37 -41
16 -64 114 -114 222 -114 93 0 153 18 198 60 41 38 41 39 41 110 0 70 -1 72
-37 105 -26 24 -61 41 -125 60 -145 43 -177 58 -187 86 -23 65 24 109 114 109
62 0 110 -19 136 -54 16 -22 24 -25 57 -20 20 4 37 12 37 19 0 26 -47 81 -85
100 -52 25 -193 32 -249 11z"/>
<path d="M8700 3421 c-131 -43 -187 -142 -178 -315 8 -135 43 -202 133 -248
50 -26 147 -34 215 -18 56 13 112 55 135 100 14 28 14 28 -25 38 -38 9 -41 8
-60 -18 -27 -39 -97 -64 -156 -57 -81 9 -130 63 -141 156 l-6 51 212 0 212 0
-7 58 c-21 177 -90 252 -239 258 -38 2 -81 0 -95 -5z m161 -84 c37 -24 66 -74
71 -122 l3 -30 -159 -3 -159 -3 7 43 c9 53 41 103 81 123 46 22 116 19 156 -8z"/>
<path d="M9640 3417 c-14 -6 -36 -34 -50 -62 l-25 -50 -3 58 -3 57 -44 0 -45
0 0 -290 0 -290 50 0 50 0 0 183 c0 200 7 243 50 290 23 26 35 31 74 32 l46 0
0 43 c0 42 0 42 -37 42 -21 0 -49 -6 -63 -13z"/>
<path d="M9966 3415 c-21 -7 -51 -26 -66 -40 -27 -26 -57 -81 -49 -89 2 -2 24
-7 49 -10 44 -7 45 -6 60 26 19 41 51 58 113 58 86 0 127 -38 127 -119 l0 -38
-107 -6 c-115 -6 -183 -24 -220 -59 -36 -34 -57 -100 -50 -160 11 -87 63 -139
149 -146 84 -7 136 12 191 70 39 42 47 47 47 29 0 -35 28 -80 53 -86 13 -4 46
-5 73 -3 45 3 49 5 52 31 3 24 0 27 -27 27 -57 0 -61 14 -61 198 0 92 -5 185
-11 207 -14 50 -64 100 -114 114 -54 15 -162 13 -209 -4z m234 -330 c0 -77
-42 -140 -113 -170 -90 -37 -167 2 -167 85 0 96 48 127 198 129 l82 1 0 -45z"/>
<path d="M10546 3416 c-22 -8 -53 -28 -70 -45 -25 -25 -30 -40 -34 -88 -4 -53
-1 -62 23 -91 36 -43 84 -67 190 -93 106 -27 145 -55 145 -105 0 -48 -35 -80
-94 -89 -88 -14 -177 14 -198 61 -11 23 -16 25 -47 19 -45 -8 -45 -8 -37 -41
16 -64 114 -114 222 -114 93 0 153 18 198 60 41 38 41 39 41 110 0 70 -1 72
-37 105 -26 24 -61 41 -125 60 -145 43 -177 58 -187 86 -23 65 24 109 114 109
62 0 110 -19 136 -54 16 -22 24 -25 57 -20 20 4 37 12 37 19 0 26 -47 81 -85
100 -52 25 -193 32 -249 11z"/>
<path d="M11470 3421 c-131 -43 -187 -142 -178 -315 8 -135 43 -202 133 -248
50 -26 147 -34 215 -18 56 13 112 55 135 100 14 28 14 28 -25 38 -38 9 -41 8
-60 -18 -27 -39 -97 -64 -156 -57 -81 9 -130 63 -141 156 l-6 51 212 0 212 0
-7 58 c-21 177 -90 252 -239 258 -38 2 -81 0 -95 -5z m161 -84 c37 -24 66 -74
71 -122 l3 -30 -159 -3 -159 -3 7 43 c9 53 41 103 81 123 46 22 116 19 156 -8z"/>
<path d="M13080 3417 c-14 -6 -36 -34 -50 -62 l-25 -50 -3 58 -3 57 -44 0 -45
0 0 -290 0 -290 50 0 50 0 0 183 c0 200 7 243 50 290 23 26 35 31 74 32 l46 0
0 43 c0 42 0 42 -37 42 -21 0 -49 -6 -63 -13z"/>
<path d="M13750 3421 c-131 -43 -187 -142 -178 -315 8 -135 43 -202 133 -248
50 -26 147 -34 215 -18 56 13 112 55 135 100 14 28 14 28 -25 38 -38 9 -41 8
-60 -18 -27 -39 -97 -64 -156 -57 -81 9 -130 63 -141 156 l-6 51 212 0 212 0
-7 58 c-21 177 -90 252 -239 258 -38 2 -81 0 -95 -5z m161 -84 c37 -24 66 -74
71 -122 l3 -30 -159 -3 -159 -3 7 43 c9 53 41 103 81 123 46 22 116 19 156 -8z"/>
<path d="M14306 3416 c-22 -8 -53 -28 -70 -45 -25 -25 -30 -40 -34 -88 -4 -53
-1 -62 23 -91 36 -43 84 -67 190 -93 106 -27 145 -55 145 -105 0 -48 -35 -80
-94 -89 -88 -14 -177 14 -198 61 -11 23 -16 25 -47 19 -45 -8 -45 -8 -37 -41
16 -64 114 -114 222 -114 93 0 153 18 198 60 41 38 41 39 41 110 0 70 -1 72
-37 105 -26 24 -61 41 -125 60 -145 43 -177 58 -187 86 -23 65 24 109 114 109
62 0 110 -19 136 -54 16 -22 24 -25 57 -20 20 4 37 12 37 19 0 26 -47 81 -85
100 -52 25 -193 32 -249 11z"/>
<path d="M3382 3188 c3 -209 5 -237 23 -273 25 -49 68 -75 140 -82 73 -8 134
16 180 70 l35 41 0 -52 0 -52 45 0 45 0 0 290 0 290 -50 0 -50 0 0 -200 c0
-183 -2 -204 -21 -241 -40 -79 -164 -103 -220 -43 -24 25 -24 29 -27 255 l-3
229 -50 0 -51 0 4 -232z"/>
<path d="M7347 2954 c-4 -4 -7 -31 -7 -61 0 -50 1 -53 25 -53 33 0 33 -30 1
-93 l-23 -47 33 0 c29 0 34 4 49 43 10 26 17 78 18 128 l2 84 -45 3 c-25 2
-49 0 -53 -4z"/>
</g>
</svg>
