<?xml version="1.0" encoding="UTF-8" standalone="no"?>
<svg
   xmlns:dc="http://purl.org/dc/elements/1.1/"
   xmlns:cc="http://creativecommons.org/ns#"
   xmlns:rdf="http://www.w3.org/1999/02/22-rdf-syntax-ns#"
   xmlns:svg="http://www.w3.org/2000/svg"
   xmlns="http://www.w3.org/2000/svg"
   viewBox="0 0 1462.3467 437.14932"
   height="437.14932"
   width="1462.3467"
   xml:space="preserve"
   id="svg2"
   version="1.1"><metadata
     id="metadata8"><rdf:RDF><cc:Work
         rdf:about=""><dc:format>image/svg+xml</dc:format><dc:type
           rdf:resource="http://purl.org/dc/dcmitype/StillImage" /></cc:Work></rdf:RDF></metadata><defs
     id="defs6"><clipPath
       id="clipPath18"
       clipPathUnits="userSpaceOnUse"><path
         id="path16"
         d="M 0,327.862 H 1096.756 V 0 H 0 Z" /></clipPath></defs><g
     transform="matrix(1.3333333,0,0,-1.3333333,0,437.14933)"
     id="g10"><g
       id="g12"><g
         clip-path="url(#clipPath18)"
         id="g14"><g
           transform="translate(861.11,189.7219)"
           id="g20"><path
             id="path22"
             style="fill:#0095db;fill-opacity:1;fill-rule:evenodd;stroke:none"
             d="m 0,0 c -2.919,2.077 -6.139,3.115 -9.66,3.115 h -19.255 l -2.55,-21.941 h 19.504 c 4.176,0 7.768,0.993 10.798,2.979 2.917,1.987 4.596,4.786 5.016,8.398 C 4.188,-4.56 2.896,-2.077 0,0 m 145.442,19.781 -10.48,-90.204 H 95.819 L 61.878,-9.339 54.781,-70.423 H 28.099 27.828 -2.76 l 0.83,25.982 c -0.229,1.715 -0.804,3.364 -1.711,4.899 -0.951,1.341 -2.321,2.542 -4.128,3.602 -0.108,0.064 -0.529,0.19 -0.631,0.19 -2.918,0.006 -7.637,0.096 -14.136,0.271 -6.751,0.18 -10.353,0.271 -10.827,0.271 l -4.091,-35.215 -28.488,0.002 11.177,90.221 58.671,-0.019 c 8.127,0 15.175,-1.897 21.145,-5.689 7.061,-4.515 10.145,-10.609 9.253,-18.285 -0.611,-5.259 -3.082,-9.819 -7.416,-13.701 -3.928,-3.5 -8.916,-6.027 -14.942,-7.563 l -0.129,-1.106 c 2.297,-0.248 4.582,-0.79 6.834,-1.603 7.028,-2.606 8.563,-7.022 9.265,-14.492 l 0.169,-25.557 10.224,87.996 h 41.038 l 32.206,-59.708 6.936,59.708 z m -284.938,-50.272 c -1.603,-13.792 -6.079,-23.95 -13.426,-30.451 -8.783,-7.788 -22.598,-11.671 -41.47,-11.671 -19.119,0 -32.209,3.522 -39.243,10.587 -6.469,6.501 -8.857,17.021 -7.172,31.535 l 5.841,50.272 h 28.826 l -5.839,-50.272 c -0.903,-7.765 0.282,-13.883 3.56,-18.307 3.281,-4.401 8.238,-6.614 14.83,-6.614 6.321,0 11.71,1.897 16.124,5.689 5.115,4.402 8.164,10.813 9.142,19.232 l 5.841,50.272 h 29.39 z" /></g><g
           transform="translate(749.3171,154.2429)"
           id="g24"><path
             id="path26"
             style="fill:#164194;fill-opacity:1;fill-rule:evenodd;stroke:none"
             d="M 0,0 -4.06,-34.944 H -32.319 L -34.121,-49.59 H 44.188 L 57.994,62.623 H -20.314 L -21.221,55.26 H 57.021 L 54.774,37.223 H 4.325 L 2.128,18.307 h 45.26 L 45.26,0 Z" /></g><g
           transform="translate(568.2477,91.3796)"
           id="g28"><path
             id="path30"
             style="fill:#0095db;fill-opacity:1;fill-rule:nonzero;stroke:none"
             d="M 0,0 -2.984,0.313 12.355,146.26 15.34,145.946 Z" /></g></g></g><text
       id="text34"
       style="font-variant:normal;font-weight:bold;font-stretch:normal;font-size:53.40000153px;font-family:'Liberation Sans';-inkscape-font-specification:LiberationSans-Bold;writing-mode:lr-tb;fill:#164194;fill-opacity:1;fill-rule:nonzero;stroke:none"
       transform="matrix(1,0,0,-1,343.9658,189.9268)"><tspan
         id="tspan32"
         y="0"
         x="0 38.554798 77.109596 115.6644 148.29179">CCHLA</tspan></text>
<text
       id="text40"
       style="font-variant:normal;font-weight:normal;font-stretch:normal;font-size:39.85829926px;font-family:'Liberation Sans';-inkscape-font-specification:LiberationSans;writing-mode:lr-tb;fill:#164194;fill-opacity:1;fill-rule:nonzero;stroke:none"
       transform="matrix(1,0,0,-1,189.8877,146.0947)"><tspan
         id="tspan36"
         y="0"
         x="0 28.777693 50.938908 73.100121 84.180733 97.453545 119.61476 130.69536 152.85658 175.01779 186.0984 214.8761 223.72464 245.88585 268.04706 287.97623 296.82477 318.98596">Centro de Ciências</tspan><tspan
         id="tspan38"
         y="43.804272"
         x="-99.685608 -70.907913 -48.7467 -15.544737 6.616478 28.777693 50.938908 70.868057 81.948662 93.029274 115.19049 137.3517 148.43231 161.70512 183.86633 203.79549 214.8761 237.03731 245.91376 272.49924 285.77206 296.85266 319.01389">Humanas, Letras e Artes</tspan></text>
</g></svg>