<?xml version="1.0" standalone="no"?>
<!DOCTYPE svg PUBLIC "-//W3C//DTD SVG 20010904//EN"
 "http://www.w3.org/TR/2001/REC-SVG-20010904/DTD/svg10.dtd">
<svg version="1.0" xmlns="http://www.w3.org/2000/svg"
 width="600.000000pt" height="200.000000pt" viewBox="0 0 600.000000 200.000000"
 preserveAspectRatio="xMidYMid meet">

<g transform="translate(0.000000,200.000000) scale(0.100000,-0.100000)"
fill="#000000" stroke="none">
<path d="M20 1991 c0 -4 5 -12 12 -19 7 -7 8 -12 4 -12 -5 0 -15 8 -22 18 -11
14 -13 15 -14 2 0 -9 6 -22 13 -29 10 -11 9 -13 -1 -7 -9 6 -12 -26 -12 -143
0 -144 6 -174 28 -135 8 14 10 14 16 -2 4 -10 3 -20 -3 -22 -9 -3 -4 -32 8
-42 4 -3 11 -16 18 -30 16 -37 -5 -64 -38 -50 l-24 10 25 -3 c17 -1 26 4 28
16 2 10 -3 17 -11 17 -15 0 -32 27 -28 45 2 6 -1 6 -6 2 -11 -11 -12 -158 -1
-151 4 3 15 -1 22 -9 16 -16 4 -37 -21 -37 -19 0 -16 -13 9 -40 16 -17 18 -22
6 -18 -23 9 -28 -11 -27 -100 1 -42 3 -69 6 -59 3 10 13 17 26 16 12 0 16 -3
9 -6 -16 -6 -16 -40 1 -46 9 -3 9 -8 -2 -18 -8 -8 -11 -9 -8 -3 4 7 -2 14 -13
17 -16 4 -20 0 -20 -19 0 -13 5 -24 10 -24 6 0 10 -7 10 -16 0 -8 -4 -12 -10
-9 -14 9 -13 -98 1 -112 8 -8 8 -13 0 -17 -18 -12 -13 -36 6 -30 17 5 17 5 1
-9 -16 -13 -18 -35 -18 -191 0 -116 3 -175 10 -171 5 3 10 1 10 -4 0 -6 -4
-11 -10 -11 -6 0 -10 -97 -10 -270 l0 -270 2669 0 c2525 0 2671 1 2687 18 17
16 18 16 11 0 -4 -12 -2 -18 8 -18 8 0 15 6 15 14 0 20 26 27 40 11 8 -10 7
-14 -7 -18 -10 -3 55 -5 145 -6 102 -1 162 3 162 9 0 6 5 10 11 10 5 0 7 -5 4
-10 -3 -6 -1 -10 5 -10 7 0 9 16 4 50 -4 33 -3 50 4 50 6 0 14 9 17 20 10 30
28 25 21 -6 -5 -17 -3 -23 4 -19 5 3 10 -1 10 -10 0 -11 -5 -15 -14 -12 -8 3
-20 -2 -28 -11 -12 -15 -11 -16 4 -4 11 9 18 10 23 2 3 -5 -1 -13 -9 -16 -9
-3 -16 -15 -16 -25 0 -16 8 -19 53 -19 46 0 53 3 53 20 0 13 -7 20 -20 20 -23
0 -16 10 9 14 10 1 25 13 34 25 17 22 17 22 18 -16 1 -21 -3 -44 -9 -51 -8 -9
-1 -12 30 -12 33 0 40 3 36 15 -4 8 -16 15 -28 15 -19 1 -19 3 9 26 29 25 29
25 5 18 -21 -6 -23 -5 -13 8 7 8 9 19 5 23 -4 5 -2 6 3 2 16 -9 35 6 40 32 2
12 0 19 -6 16 -5 -4 -7 -11 -4 -16 4 -5 -1 -9 -9 -9 -20 0 -20 14 -1 30 8 7
13 16 10 20 -3 5 -1 11 5 15 13 8 13 61 0 86 -7 13 -7 19 0 19 5 0 10 4 10 10
0 5 -8 7 -17 4 -17 -5 -17 -5 -1 5 14 10 17 30 17 133 0 80 -4 127 -12 137 -9
12 -9 13 1 7 9 -5 12 4 12 38 0 25 -5 48 -10 51 -6 4 -8 10 -5 15 3 4 8 31 11
58 4 37 1 58 -11 79 -14 22 -14 24 -1 9 14 -17 15 33 16 568 l0 586 -2695 0
c-2149 0 -2695 -3 -2695 -12 0 -9 -4 -8 -10 2 -7 11 -10 11 -10 2 0 -10 -5
-10 -20 -2 -22 12 -550 13 -550 1z m190 -13 c0 -6 -3 -9 -6 -5 -3 3 -17 -5
-31 -19 -27 -27 -24 -46 3 -23 15 12 17 12 12 -1 -8 -27 -43 -23 -57 6 -11 24
-10 26 8 21 12 -3 27 3 37 14 19 22 34 25 34 7z m200 -3 c-7 -9 -15 -13 -19
-10 -3 3 1 10 9 15 21 14 24 12 10 -5z m140 5 c0 -5 -4 -10 -9 -10 -6 0 -13 5
-16 10 -3 6 1 10 9 10 9 0 16 -4 16 -10z m-290 -4 c0 -2 -7 -7 -16 -10 -8 -3
-12 -2 -9 4 6 10 25 14 25 6z m100 -27 c0 -11 -49 -24 -57 -15 -4 3 -15 -1
-25 -11 -10 -9 -21 -13 -26 -8 -4 4 -1 10 6 12 6 3 12 12 12 21 0 14 8 16 45
14 25 -2 45 -8 45 -13z m450 -13 c0 -2 -7 -7 -16 -10 -8 -3 -12 -2 -9 4 6 10
25 14 25 6z m-710 -16 c0 -5 -5 -10 -11 -10 -5 0 -7 5 -4 10 3 6 8 10 11 10 2
0 4 -4 4 -10z m463 -5 c-3 -9 -8 -14 -10 -11 -3 3 -2 9 2 15 9 16 15 13 8 -4z
m-333 -11 c0 -2 -7 -4 -15 -4 -8 0 -15 4 -15 10 0 5 7 7 15 4 8 -4 15 -8 15
-10z m240 2 c0 -11 -19 -15 -25 -6 -3 5 1 10 9 10 9 0 16 -2 16 -4z m370 -11
c7 -9 10 -18 6 -22 -3 -3 -6 -1 -6 6 0 6 -10 16 -22 21 -16 6 -18 9 -7 9 9 1
22 -6 29 -14z m-654 -10 c-3 -8 -1 -15 4 -15 6 0 10 -4 10 -10 0 -5 -5 -10
-11 -10 -12 0 -44 30 -32 30 4 0 1 5 -7 10 -12 8 -9 10 14 10 21 0 27 -4 22
-15z m88 -8 c-2 -7 -17 -13 -32 -14 l-27 -1 28 12 c15 7 24 16 20 21 -5 4 -3
5 4 1 7 -4 10 -12 7 -19z m-154 8 c0 -2 -5 -15 -11 -29 -9 -20 -9 -29 0 -40
15 -18 6 -36 -16 -36 -9 0 -14 3 -10 6 9 9 -25 43 -38 37 -13 -4 -28 12 -31
34 -1 6 4 9 12 6 8 -3 11 -9 8 -14 -7 -12 23 -11 46 1 11 6 17 17 14 25 -4 9
0 15 10 15 9 0 16 -2 16 -5z m173 -35 c4 -16 0 -20 -19 -20 -13 0 -24 5 -24
11 0 6 7 9 15 5 8 -3 14 -2 14 2 -4 27 7 29 14 2z m874 -6 c-7 -7 -37 7 -37
17 0 6 9 5 21 -1 11 -7 19 -14 16 -16z m-592 6 c-3 -5 0 -10 7 -10 10 0 9 -3
-2 -9 -17 -12 -30 -5 -30 15 0 8 7 14 16 14 8 0 12 -4 9 -10z m-355 -20 c0
-13 5 -18 15 -14 21 8 19 -20 -2 -37 -9 -8 -19 -12 -22 -9 -3 3 -7 -7 -9 -22
-3 -26 -12 -33 -36 -29 -5 1 -6 -6 -2 -15 4 -10 -1 -22 -11 -30 -15 -11 -15
-13 -3 -14 11 -1 10 -5 -6 -18 -11 -9 -26 -26 -32 -37 -10 -17 -11 -15 -5 14
5 31 4 33 -16 26 -17 -5 -21 -2 -21 14 0 12 5 21 11 21 5 0 7 -4 4 -10 -3 -5
0 -10 8 -10 10 0 13 8 9 25 -3 16 0 25 8 25 7 0 10 -7 7 -15 -8 -20 8 -28 22
-11 9 11 9 15 0 18 -7 2 -9 12 -4 27 4 13 12 20 20 17 8 -3 26 9 41 27 l26 31
-21 17 c-15 12 -17 19 -9 22 23 10 28 7 28 -13z m125 0 c-3 -5 -2 -10 4 -10 6
0 8 -6 5 -13 -3 -8 -11 -14 -19 -14 -18 0 -20 33 -2 40 18 8 19 8 12 -3z m325
-27 c0 -26 -1 -26 -17 -10 -16 16 -16 19 -3 27 20 13 20 13 20 -17z m-385 7
c3 -5 -1 -10 -9 -10 -9 0 -16 5 -16 10 0 6 4 10 9 10 6 0 13 -4 16 -10z m465
-2 c0 -4 -4 -8 -9 -8 -6 0 -12 4 -15 8 -3 5 1 9 9 9 8 0 15 -4 15 -9z m-250
-24 c0 -8 -4 -12 -10 -9 -5 3 -10 10 -10 16 0 5 5 9 10 9 6 0 10 -7 10 -16z
m124 2 c-3 -8 -12 -17 -20 -20 -12 -4 -12 -2 -4 14 12 23 32 27 24 6z m398 -4
c-7 -2 -10 -8 -6 -13 3 -5 0 -9 -5 -9 -6 0 -11 9 -11 20 0 14 5 18 17 13 11
-4 13 -8 5 -11z m-964 -17 c-3 -3 -9 2 -12 12 -6 14 -5 15 5 6 7 -7 10 -15 7
-18z m887 15 c3 -5 0 -10 -8 -10 -8 0 -20 -7 -27 -15 -7 -8 -17 -15 -23 -15
-10 0 33 47 45 49 4 1 10 -3 13 -9z m365 6 c0 -2 -7 -7 -16 -10 -8 -3 -12 -2
-9 4 6 10 25 14 25 6z m-988 -21 c0 -5 -5 -10 -11 -11 -8 -2 -7 -1 0 3 8 4 7
8 -2 15 -11 8 -11 9 -1 6 8 -2 14 -8 14 -13z m368 -4 c0 -10 -7 -21 -15 -24
-12 -5 -12 -2 -3 18 13 30 18 31 18 6z m380 4 c-7 -8 -17 -15 -23 -15 -6 0 -2
7 9 15 25 19 30 19 14 0z m-1030 -16 c0 -5 -7 -9 -15 -9 -8 0 -15 7 -15 15 0
9 6 12 15 9 8 -4 15 -10 15 -15z m247 5 c-3 -3 -12 -4 -19 -1 -8 3 -5 6 6 6
11 1 17 -2 13 -5z m168 -4 c4 -6 3 -10 -2 -9 -22 4 -33 -3 -33 -18 0 -15 -2
-16 -10 -3 -7 11 -5 19 7 28 20 15 30 15 38 2z m275 -10 c0 -5 -7 -10 -16 -10
-8 0 -12 5 -9 10 3 6 10 10 16 10 5 0 9 -4 9 -10z m315 -8 c-3 -3 -11 0 -18 7
-9 10 -8 11 6 5 10 -3 15 -9 12 -12z m-975 -6 c0 -7 -9 -16 -20 -19 -25 -6
-26 8 -2 22 22 13 22 13 22 -3z m173 7 c-7 -2 -19 -2 -25 0 -7 3 -2 5 12 5 14
0 19 -2 13 -5z m712 -3 c-27 -12 -43 -12 -25 0 8 5 22 9 30 9 10 0 8 -3 -5 -9z
m-330 -10 c-3 -5 -11 -10 -16 -10 -6 0 -7 5 -4 10 3 6 11 10 16 10 6 0 7 -4 4
-10z m-401 -15 c-4 -8 -11 -15 -16 -15 -6 0 -5 6 2 15 7 8 14 15 16 15 2 0 1
-7 -2 -15z m103 -18 c-6 -18 -27 -20 -27 -3 0 10 -6 13 -15 10 -8 -4 -23 -3
-32 1 -17 7 -16 8 2 15 24 9 77 -8 72 -23z m348 24 c3 -5 1 -12 -5 -16 -5 -3
-10 1 -10 9 0 18 6 21 15 7z m205 5 c0 -3 -4 -8 -10 -11 -5 -3 -10 -1 -10 4 0
6 5 11 10 11 6 0 10 -2 10 -4z m285 -26 c3 -5 1 -10 -4 -10 -6 0 -11 5 -11 10
0 6 2 10 4 10 3 0 8 -4 11 -10z m-790 -10 c3 -5 -3 -10 -15 -10 -12 0 -18 5
-15 10 3 6 10 10 15 10 5 0 12 -4 15 -10z m635 6 c0 -2 -7 -7 -16 -10 -8 -3
-12 -2 -9 4 6 10 25 14 25 6z m-751 -43 c-8 -21 -6 -26 13 -31 21 -5 21 -6 2
-12 -10 -4 -29 -3 -41 3 -25 11 -32 30 -8 21 17 -7 21 11 5 21 -20 13 -10 32
14 28 22 -5 24 -8 15 -30z m172 20 c8 -9 9 -14 2 -10 -7 4 -13 0 -16 -10 -3
-11 -5 -8 -6 10 -1 32 2 33 20 10z m153 -45 c5 -4 -1 -4 -13 -1 -13 3 -25 12
-28 19 -8 21 -29 17 -46 -8 l-16 -23 6 25 c11 48 23 53 57 23 17 -15 35 -31
40 -35z m549 35 c-7 -2 -19 -2 -25 0 -7 3 -2 5 12 5 14 0 19 -2 13 -5z m-929
-18 c-4 -8 -11 -12 -16 -9 -6 4 -5 10 3 15 19 12 19 11 13 -6z m114 -26 c2
-19 -2 -28 -8 -24 -12 7 -14 55 -2 55 4 0 9 -14 10 -31z m572 17 c0 -2 -7 -7
-16 -10 -8 -3 -12 -2 -9 4 6 10 25 14 25 6z m-448 -22 c-13 -9 -26 -13 -30 -9
-8 8 17 25 38 25 9 0 6 -6 -8 -16z m-305 -36 c-3 -7 -5 -2 -5 12 0 14 2 19 5
13 2 -7 2 -19 0 -25z m368 22 c-3 -5 -11 -10 -16 -10 -6 0 -7 5 -4 10 3 6 11
10 16 10 6 0 7 -4 4 -10z m382 -12 c-3 -8 -6 -5 -6 6 -1 11 2 17 5 13 3 -3 4
-12 1 -19z m190 0 c-3 -8 -6 -5 -6 6 -1 11 2 17 5 13 3 -3 4 -12 1 -19z m-522
-8 c10 -11 14 -20 9 -20 -5 0 -15 9 -22 20 -7 11 -11 20 -9 20 2 0 12 -9 22
-20z m-369 -15 c-10 -8 -23 -16 -29 -18 -7 -2 -6 -10 1 -23 6 -10 12 -13 12
-6 0 7 5 10 11 7 6 -4 8 -13 5 -20 -3 -8 4 -17 17 -21 21 -7 21 -7 2 -15 -30
-11 -33 -11 -31 9 1 12 -5 16 -21 15 -12 -1 -24 5 -27 14 -5 13 -4 14 9 3 12
-10 15 -10 15 4 0 9 -6 16 -12 16 -7 0 3 14 22 29 19 16 37 27 40 24 3 -2 -4
-11 -14 -18z m77 -2 c-4 -10 -2 -14 4 -10 5 4 19 0 29 -9 18 -14 18 -15 -3 -9
-16 4 -23 2 -23 -7 0 -8 -4 -6 -11 5 -7 12 -17 15 -37 11 l-27 -6 30 20 c37
25 46 27 38 5z m2172 -3 c14 -23 -91 -286 -120 -303 -32 -18 -45 12 -51 125
-8 127 -5 142 30 127 17 -8 26 -22 31 -53 l6 -41 18 37 c10 20 22 49 25 65 12
47 44 70 61 43z m1959 -2 c10 -10 6 -28 -19 -97 -53 -143 -77 -191 -98 -203
-32 -17 -43 10 -51 128 -8 119 -2 135 39 116 21 -10 25 -18 25 -54 l0 -43 22
45 c23 50 25 54 27 74 1 14 27 46 37 46 3 0 11 -5 18 -12z m-1501 -23 c47 -19
77 -52 77 -84 0 -22 5 -18 30 26 32 56 70 87 70 58 0 -9 5 -13 10 -10 6 3 10
1 10 -4 0 -6 9 -11 20 -11 10 0 24 -9 30 -19 36 -69 -29 -220 -102 -236 -44
-10 -78 28 -78 88 l0 42 -20 -31 c-33 -51 -121 -104 -172 -104 -13 0 -18 5
-15 14 3 8 2 16 -3 18 -5 2 2 41 15 87 14 47 25 101 25 121 0 60 33 75 103 45z
m671 -7 c-5 -7 -1 -9 9 -5 10 3 17 3 17 -2 0 -4 11 -13 24 -19 57 -26 38 -142
-34 -214 -42 -43 -70 -48 -100 -18 -43 43 -14 196 50 260 20 20 47 19 34 -2z
m926 -5 c0 8 14 -2 51 -35 26 -24 24 -71 -5 -133 -25 -55 -76 -105 -107 -105
-10 0 -28 9 -40 21 -18 18 -21 30 -17 83 4 64 36 144 71 179 19 19 20 19 34 2
7 -11 13 -16 13 -12z m-4380 2 c0 -8 -7 -15 -15 -15 -9 0 -12 6 -9 15 4 8 10
15 15 15 5 0 9 -7 9 -15z m385 -3 c-3 -3 -11 0 -18 7 -9 10 -8 11 6 5 10 -3
15 -9 12 -12z m398 -2 c3 -11 1 -18 -4 -14 -5 3 -9 12 -9 20 0 20 7 17 13 -6z
m735 0 c38 -23 42 -53 11 -87 -18 -18 -20 -25 -9 -38 28 -33 -7 -103 -67 -134
-30 -15 -56 -14 -46 2 4 6 -5 4 -20 -5 -33 -22 -51 -23 -43 -2 3 8 2 12 -4 9
-14 -9 -13 1 12 85 12 41 22 97 22 124 1 44 4 51 26 57 46 13 85 9 118 -11z
m217 12 c28 -10 30 -32 3 -32 -19 0 -20 -2 -8 -10 11 -7 4 -10 -28 -10 -36 0
-44 -4 -52 -26 -14 -35 -14 -34 20 -34 20 0 30 -5 30 -15 0 -8 -5 -15 -11 -15
-5 0 -8 -4 -5 -9 7 -10 -16 -21 -44 -21 -11 0 -22 -12 -29 -31 -10 -29 -9 -31
12 -27 13 3 30 -3 42 -15 20 -20 20 -20 -10 -13 -20 4 -25 3 -16 -3 20 -13 4
-31 -26 -31 -37 0 -63 27 -63 66 0 32 42 180 61 217 7 13 21 17 57 16 26 -1
56 -4 67 -7z m274 -2 c18 -9 17 -16 -11 -137 -29 -128 -45 -162 -68 -148 -12
8 -9 87 6 145 5 17 -4 8 -27 -25 -46 -67 -64 -69 -82 -8 l-14 48 -17 -57 c-9
-31 -16 -60 -16 -65 0 -16 -38 -45 -49 -38 -6 3 -11 17 -11 31 0 40 70 245 86
251 21 8 59 -31 62 -63 3 -37 11 -43 24 -19 13 24 83 95 92 95 4 0 15 -4 25
-10z m380 1 c12 -8 11 -20 -6 -83 -12 -40 -24 -89 -28 -108 -8 -37 -35 -90
-46 -90 -19 0 -16 79 7 171 13 56 27 105 30 110 7 11 25 11 43 0z m271 -6 c-1
-27 -68 -267 -77 -276 -22 -22 -51 9 -73 81 -12 38 -23 70 -25 70 -1 0 -11
-31 -20 -70 -17 -69 -35 -97 -55 -85 -5 3 -10 17 -10 31 0 30 50 236 60 247 4
4 19 5 34 1 21 -5 29 -16 41 -58 25 -82 30 -83 49 -1 17 73 18 75 47 73 16 -1
29 -7 29 -13z m660 0 c20 -24 9 -233 -15 -268 -22 -34 -35 -21 -35 36 0 30 -4
37 -20 37 -21 0 -60 -33 -60 -51 0 -13 -25 -39 -39 -39 -6 0 -13 11 -17 24 -4
19 11 56 62 150 55 103 71 126 89 126 13 0 28 -7 35 -15z m583 8 c6 -10 -61
-275 -73 -286 -4 -5 -17 -6 -28 -3 -15 5 -27 28 -43 81 -13 41 -26 71 -30 67
-3 -4 -12 -33 -19 -65 -7 -32 -19 -66 -26 -75 -12 -16 -14 -16 -30 0 -16 16
-15 24 15 140 18 68 36 127 40 131 4 4 20 3 34 -2 20 -8 30 -23 45 -73 14 -44
21 -57 25 -43 3 11 13 46 22 78 14 49 20 57 40 57 13 0 26 -3 28 -7z m97 -4
c0 -5 5 -7 10 -4 6 3 10 2 10 -4 0 -6 11 -13 24 -17 63 -16 38 -155 -40 -224
-41 -36 -66 -38 -94 -8 -37 40 -25 131 29 226 23 39 61 59 61 31z m-3573 -24
c-4 -8 -12 -15 -19 -14 -10 0 -10 2 0 6 6 2 12 12 12 21 0 8 3 13 6 9 4 -3 4
-13 1 -22z m204 -2 c13 -16 12 -17 -3 -4 -10 7 -18 15 -18 17 0 8 8 3 21 -13z
m199 1 c0 -8 -19 -13 -24 -6 -3 5 1 9 9 9 8 0 15 -2 15 -3z m-386 -22 c-6 -4
-13 -15 -17 -25 -6 -16 -9 -17 -22 -3 -20 20 -19 24 8 29 37 7 43 7 31 -1z
m-304 -17 c0 -9 -9 -15 -22 -15 -21 0 -21 0 -2 15 24 18 24 18 24 0z m535 -5
c-3 -5 -16 -10 -28 -10 -18 0 -19 2 -7 10 20 13 43 13 35 0z m-588 -18 c10 -7
10 -12 0 -25 -8 -12 -16 -14 -27 -7 -12 7 -12 10 -1 10 7 0 11 6 7 15 -6 16 2
19 21 7z m153 -13 c0 -5 -4 -9 -10 -9 -5 0 -10 7 -10 16 0 8 5 12 10 9 6 -3
10 -10 10 -16z m5585 11 c3 -5 1 -10 -4 -10 -6 0 -11 5 -11 10 0 6 2 10 4 10
3 0 8 -4 11 -10z m-5130 -10 c3 -5 1 -10 -4 -10 -6 0 -11 5 -11 10 0 6 2 10 4
10 3 0 8 -4 11 -10z m-740 -9 c-3 -5 7 -11 22 -13 22 -2 28 -8 29 -28 1 -40
-6 -52 -22 -39 -8 6 -14 18 -14 26 0 8 -4 12 -9 9 -5 -3 -11 4 -14 16 -6 21
-1 38 9 38 3 0 3 -4 -1 -9z m679 -6 c-4 -8 -11 -15 -16 -15 -6 0 -5 6 2 15 7
8 14 15 16 15 2 0 1 -7 -2 -15z m5163 -27 c-3 -7 -5 -2 -5 12 0 14 2 19 5 13
2 -7 2 -19 0 -25z m-5210 16 c-3 -3 -12 -4 -19 -1 -8 3 -5 6 6 6 11 1 17 -2
13 -5z m110 -16 c-3 -8 -6 -5 -6 6 -1 11 2 17 5 13 3 -3 4 -12 1 -19z m-560
-10 c-3 -8 -6 -5 -6 6 -1 11 2 17 5 13 3 -3 4 -12 1 -19z m433 -27 c0 -5 -7
-11 -15 -15 -15 -5 -20 5 -8 17 9 10 23 9 23 -2z m-610 -18 c0 -7 5 -13 10
-13 6 0 10 -7 10 -15 0 -9 6 -12 18 -8 13 4 14 3 6 -6 -13 -14 -44 -4 -44 14
0 7 -9 15 -20 18 -11 3 -20 10 -20 15 0 6 9 10 20 9 11 -1 20 -7 20 -14z m651
-16 c-10 -9 -11 -8 -5 6 3 10 9 15 12 12 3 -3 0 -11 -7 -18z m-561 -6 c0 -5
-7 -11 -14 -14 -10 -4 -13 -1 -9 9 6 15 23 19 23 5z m54 -17 c3 -8 2 -12 -4
-9 -6 3 -10 10 -10 16 0 14 7 11 14 -7z m-186 -19 c-3 -3 -9 2 -12 12 -6 14
-5 15 5 6 7 -7 10 -15 7 -18z m5932 10 c0 -8 -4 -15 -10 -15 -5 0 -7 7 -4 15
4 8 8 15 10 15 2 0 4 -7 4 -15z m-5660 -5 c-12 -8 -13 -11 -2 -22 11 -11 16
-10 27 6 8 10 19 15 25 11 8 -5 8 -11 -1 -21 -6 -7 -9 -19 -7 -26 3 -7 1 -22
-4 -33 -8 -18 -8 -18 -4 3 2 12 -1 22 -7 22 -6 0 -7 3 -4 7 4 3 -3 11 -15 17
-29 15 -36 46 -11 46 15 0 16 -2 3 -10z m400 0 c0 -5 -7 -7 -15 -4 -8 4 -15 1
-15 -7 0 -7 -3 -10 -6 -6 -9 9 5 27 22 27 8 0 14 -4 14 -10z m-510 -20 c0 -5
-5 -10 -11 -10 -5 0 -7 5 -4 10 3 6 8 10 11 10 2 0 4 -4 4 -10z m40 -20 c0 -5
-4 -10 -10 -10 -5 0 -10 5 -10 10 0 6 5 10 10 10 6 0 10 -4 10 -10z m146 -16
c-3 -8 -1 -14 4 -14 6 0 10 5 10 11 0 6 7 9 15 5 9 -3 15 0 15 9 0 17 9 19 30
5 13 -8 12 -10 -2 -10 -10 0 -18 -4 -18 -8 0 -4 -13 -13 -29 -19 -26 -9 -30
-8 -39 12 -11 24 -6 39 10 29 5 -3 7 -12 4 -20z m76 -26 c-7 -7 -12 -8 -12 -2
0 14 12 26 19 19 2 -3 -1 -11 -7 -17z m-325 -33 c2 -6 -4 -20 -12 -30 -14 -19
-15 -18 -6 7 8 22 7 28 -7 32 -13 4 -13 4 2 3 11 -1 21 -7 23 -12z m103 -22
c0 -10 -4 -14 -8 -8 -4 6 -11 13 -16 18 -5 4 -2 7 7 7 10 0 17 -8 17 -17z
m-34 -8 c14 -13 13 -16 -8 -24 -28 -10 -35 -6 -20 12 7 8 9 17 5 20 -3 4 -3 7
1 7 4 0 14 -7 22 -15z m68 -10 c-4 -8 -10 -15 -15 -15 -4 0 -6 7 -3 15 4 8 10
15 15 15 4 0 6 -7 3 -15z m66 5 c0 -5 -4 -10 -10 -10 -5 0 -8 -20 -6 -45 4
-49 3 -50 -25 -35 -15 9 -19 7 -19 -5 0 -9 5 -13 10 -10 6 3 10 0 10 -7 0 -7
-14 -21 -30 -30 -17 -9 -30 -23 -30 -30 1 -10 4 -9 13 2 13 17 37 24 37 12 0
-15 -39 -40 -57 -37 -10 2 -22 4 -28 5 -5 0 -3 6 5 13 20 16 55 70 52 80 -4
12 22 34 34 30 7 -2 14 3 17 12 4 8 2 15 -3 15 -14 0 -12 18 3 35 14 17 27 19
27 5z m-265 -10 c3 -5 1 -10 -4 -10 -6 0 -11 5 -11 10 0 6 2 10 4 10 3 0 8 -4
11 -10z m1742 -11 c15 -6 38 -20 51 -31 56 -54 -7 -188 -90 -188 -17 0 -29 -6
-33 -19 -6 -19 -38 -61 -48 -61 -17 0 -13 58 8 131 29 100 29 99 10 99 -9 0
-15 9 -15 25 0 20 8 29 33 40 39 17 48 18 84 4z m183 -5 c0 -8 4 -13 10 -9 10
6 50 -13 62 -30 14 -18 8 -105 -8 -138 -27 -53 -75 -97 -105 -97 -80 0 -88
113 -17 238 28 50 58 69 58 36z m265 2 c29 -13 35 -20 35 -46 0 -38 -23 -84
-51 -104 -26 -18 -19 -48 16 -64 28 -13 33 -43 11 -62 -23 -19 -79 13 -101 58
l-18 37 -16 -50 c-10 -31 -23 -51 -33 -53 -13 -3 -16 1 -11 14 4 12 3 15 -6
10 -16 -10 -6 49 19 114 9 25 20 54 24 64 6 19 7 19 21 0 8 -11 15 -14 15 -6
0 6 5 12 11 12 6 0 8 -9 4 -21 -6 -16 -4 -20 6 -14 28 16 49 39 49 53 0 12
-11 14 -57 9 -38 -4 -52 -3 -43 3 13 8 12 10 -2 10 -10 0 -18 7 -18 15 0 34
83 46 145 21z m380 -2 c12 -13 16 -34 15 -88 -3 -160 5 -166 39 -28 27 112 36
132 57 132 8 0 12 -4 9 -10 -3 -5 1 -10 10 -10 11 0 15 -5 12 -14 -3 -8 -11
-34 -17 -58 -6 -24 -18 -60 -26 -82 -8 -21 -14 -39 -12 -40 2 -1 20 -10 42
-19 38 -17 38 -18 20 -38 -10 -11 -26 -18 -36 -16 -10 3 -36 1 -59 -4 -28 -7
-45 -6 -54 1 -10 8 -15 6 -20 -11 -10 -30 -25 -5 -25 42 0 43 -4 47 -36 41
-15 -3 -30 -15 -37 -31 -19 -44 -38 -62 -54 -50 -7 6 -13 18 -13 27 0 15 112
234 132 260 14 17 33 15 53 -4z m416 2 c42 -18 66 -43 71 -76 3 -22 7 -18 36
33 31 56 61 75 63 40 0 -11 3 -13 6 -6 3 9 15 5 39 -13 30 -23 34 -32 34 -71
0 -116 -107 -225 -164 -167 -20 19 -30 57 -24 89 4 21 0 18 -34 -19 -38 -44
-125 -96 -161 -96 -14 0 -17 5 -12 20 3 11 2 20 -3 20 -5 0 2 42 17 93 15 51
26 98 23 105 -2 7 -1 24 2 37 5 20 13 25 40 25 18 0 49 -6 67 -14z m539 -29
c11 -19 12 -33 4 -54 -14 -40 -43 -42 -50 -4 -6 27 -9 29 -22 19 -21 -18 -42
-71 -42 -108 0 -32 11 -38 29 -16 17 21 51 27 51 9 0 -8 5 -11 10 -8 22 14 8
-13 -22 -42 -52 -49 -75 -57 -104 -39 -44 29 -44 95 1 193 40 89 109 113 145
50z m199 -4 c11 -25 5 -73 -9 -73 -5 0 -16 -3 -26 -7 -10 -3 -15 -2 -12 3 4 5
0 20 -7 34 l-13 24 -20 -34 c-20 -33 -39 -107 -29 -116 3 -3 20 4 38 15 40 25
53 26 46 7 -4 -11 -1 -13 10 -9 25 10 -1 -30 -39 -59 -50 -38 -74 -42 -97 -19
-50 50 -2 229 71 264 38 18 70 7 87 -30z m302 25 c0 -13 3 -17 6 -10 2 6 9 12
13 12 9 0 -5 -54 -36 -149 -8 -24 -13 -44 -12 -45 14 -9 61 -26 63 -24 1 2 30
56 65 121 63 116 76 129 110 107 22 -13 17 -227 -5 -271 -13 -25 -19 -28 -31
-18 -8 6 -14 28 -14 49 0 34 -2 37 -25 32 -17 -3 -32 -17 -45 -43 -24 -46 -40
-57 -51 -36 -10 16 -43 17 -122 2 -34 -7 -37 -5 -38 16 -1 19 -3 17 -12 -11
-30 -94 -86 -71 -61 25 17 65 17 65 -4 65 -23 0 -42 -19 -42 -42 0 -28 -29
-78 -45 -78 -20 0 -27 34 -16 77 6 21 12 49 15 63 6 28 33 112 47 148 6 17 16
22 32 20 24 -3 27 -22 13 -90 -7 -34 -6 -37 13 -35 21 1 25 9 47 100 6 28 27
35 53 18 12 -8 10 -26 -13 -115 -31 -126 -31 -124 -6 -101 11 10 20 25 20 34
0 37 55 201 67 201 7 0 13 -10 14 -22z m-1608 -6 c20 -22 6 -42 -29 -42 -19 0
-27 -14 -60 -116 -21 -64 -40 -111 -42 -104 -3 9 -11 5 -23 -11 l-19 -24 1 35
c0 19 10 74 22 122 l23 87 -26 3 c-19 2 -25 9 -25 28 0 29 24 38 106 39 42 1
60 -3 72 -17z m-2393 -17 c0 -16 -27 -32 -37 -21 -7 7 16 36 28 36 5 0 9 -7 9
-15z m135 -5 c3 -5 1 -10 -5 -10 -14 0 -35 -20 -43 -40 -4 -10 -6 -8 -6 7 -1
35 39 67 54 43z m5514 -37 c0 -11 -3 -13 -6 -6 -3 8 -15 11 -31 8 -23 -5 -24
-4 -7 4 31 15 45 13 44 -6z m-5499 -13 c0 -5 -5 -10 -11 -10 -5 0 -7 5 -4 10
3 6 8 10 11 10 2 0 4 -4 4 -10z m5540 -12 c0 -16 -3 -19 -11 -11 -6 6 -8 16
-5 22 11 17 16 13 16 -11z m-5458 -3 c0 -5 -5 -11 -11 -13 -6 -2 -11 4 -11 13
0 9 5 15 11 13 6 -2 11 -8 11 -13z m5509 -22 c13 -16 12 -17 -3 -4 -10 7 -18
15 -18 17 0 8 8 3 21 -13z m-87 -8 c-4 -8 -11 -15 -16 -15 -6 0 -5 6 2 15 7 8
14 15 16 15 2 0 1 -7 -2 -15z m-5426 -31 c0 -15 -4 -22 -10 -16 -5 5 -6 16 -2
25 9 23 12 21 12 -9z m5672 22 c0 -2 -7 -7 -16 -10 -8 -3 -12 -2 -9 4 6 10 25
14 25 6z m-247 -46 c3 -11 1 -20 -4 -20 -5 0 -9 9 -9 20 0 11 2 20 4 20 2 0 6
-9 9 -20z m-5643 -14 c0 -8 -4 -18 -10 -21 -5 -3 -10 3 -10 14 0 12 5 21 10
21 6 0 10 -6 10 -14z m95 4 c3 -5 2 -10 -4 -10 -5 0 -13 5 -16 10 -3 6 -2 10
4 10 5 0 13 -4 16 -10z m5414 -44 c-9 -8 -10 -7 -5 7 3 10 7 24 7 30 1 7 3 4
6 -7 3 -10 -1 -23 -8 -30z m80 18 c-14 -18 -24 -11 -15 11 3 9 11 13 16 10 8
-5 7 -11 -1 -21z m-5539 6 c0 -5 -4 -10 -10 -10 -5 0 -10 5 -10 10 0 6 5 10
10 10 6 0 10 -4 10 -10z m102 -15 c11 -15 9 -37 -2 -30 -6 4 -7 11 -4 17 5 7
-2 9 -20 4 -17 -4 -26 -2 -26 5 0 8 -4 9 -13 0 -13 -10 -27 -6 -27 9 0 11 84
6 92 -5z m215 -7 c-3 -8 -6 -5 -6 6 -1 11 2 17 5 13 3 -3 4 -12 1 -19z m-375
-20 c-7 -7 -12 -8 -12 -2 0 14 12 26 19 19 2 -3 -1 -11 -7 -17z m5808 2 c0 -5
-5 -10 -11 -10 -5 0 -7 5 -4 10 3 6 8 10 11 10 2 0 4 -4 4 -10z m-5669 -33
c-10 -9 -11 -8 -5 6 3 10 9 15 12 12 3 -3 0 -11 -7 -18z m5694 13 c3 -5 1 -10
-4 -10 -6 0 -11 5 -11 10 0 6 2 10 4 10 3 0 8 -4 11 -10z m48 -17 c-7 -2 -19
-2 -25 0 -7 3 -2 5 12 5 14 0 19 -2 13 -5z m-128 -25 c-6 -22 -5 -22 8 1 9 15
17 20 21 13 4 -6 -2 -20 -14 -32 -22 -22 -40 -26 -40 -9 0 8 -6 7 -17 -2 -10
-7 -4 2 12 19 36 37 38 38 30 10z m125 -13 c0 -8 -4 -15 -10 -15 -5 0 -7 7 -4
15 4 8 8 15 10 15 2 0 4 -7 4 -15z m-5725 -14 c3 -5 1 -12 -4 -15 -5 -4 -13
-1 -17 6 -5 8 -10 6 -15 -8 -7 -17 -8 -17 -8 4 -1 15 5 22 18 22 11 0 22 -4
26 -9z m4836 -45 c-6 -7 -7 -17 -3 -21 4 -5 2 -5 -5 -2 -6 4 -9 16 -6 27 3 11
9 17 15 14 5 -3 5 -11 -1 -18z m744 -27 c-4 -5 -12 -9 -18 -8 -9 0 -8 2 1 6 6
2 9 10 6 15 -4 7 -2 8 5 4 6 -4 9 -12 6 -17z m-342 -24 c-3 -9 -8 -14 -10 -11
-3 3 -2 9 2 15 9 16 15 13 8 -4z m117 -9 c0 -2 -7 -9 -15 -16 -13 -11 -14 -10
-9 4 5 14 24 23 24 12z m24 -27 c-4 -7 -9 -25 -10 -38 -2 -17 0 -21 5 -12 6
10 10 10 16 1 10 -16 0 -23 -24 -15 -15 4 -18 12 -15 33 3 14 9 31 15 38 5 6
7 13 5 16 -1 3 1 2 7 -2 5 -5 6 -14 1 -21z m-2533 -39 c24 -14 24 -35 -1 -60
-17 -17 -17 -21 -5 -34 8 -8 15 -19 15 -25 0 -19 -28 -12 -45 12 l-15 22 -7
-23 c-3 -13 -11 -21 -17 -19 -12 5 -10 28 6 70 8 20 14 25 23 17 9 -7 16 -6
25 5 11 13 9 15 -13 15 -26 0 -42 12 -30 24 10 9 42 7 64 -4z m173 2 c9 -15
-26 -132 -39 -132 -8 0 -19 17 -26 38 -10 29 -14 33 -17 17 -3 -11 -9 -31 -14
-45 -18 -47 -26 0 -10 61 16 67 35 76 55 27 l14 -33 7 38 c7 35 19 47 30 29z
m2196 -24 c0 -5 -4 -8 -10 -8 -5 0 -10 10 -10 23 0 18 2 19 10 7 5 -8 10 -18
10 -22z m384 23 c3 -5 -1 -11 -9 -15 -9 -3 -15 0 -15 9 0 16 16 20 24 6z
m-3061 -17 c-1 -5 -5 -27 -9 -48 -5 -28 -4 -37 5 -32 14 9 45 77 42 91 -1 6 3
5 9 -1 15 -15 -3 -85 -29 -108 -25 -23 -55 -17 -59 11 -5 33 17 105 31 100 7
-3 11 -8 10 -13z m197 7 c0 -5 -10 -11 -22 -13 -25 -4 -37 -28 -14 -28 9 0 16
-7 16 -15 0 -8 -9 -15 -19 -15 -12 0 -23 -11 -30 -30 -11 -33 -31 -41 -31 -12
0 9 5 35 11 57 8 29 8 40 0 43 -6 2 -9 8 -5 13 7 12 94 12 94 0z m2982 -26 c9
-19 14 -22 21 -13 5 8 6 2 1 -17 -4 -16 -7 -38 -8 -47 -1 -26 -16 -10 -16 17
0 13 -4 26 -10 30 -5 3 -7 12 -3 20 3 8 0 15 -6 15 -6 0 -11 5 -11 10 0 19 21
10 32 -15z m-279 1 c4 -9 -3 -16 -16 -20 -22 -5 -22 -5 -2 -20 11 -9 16 -15
10 -15 -11 0 -55 34 -55 43 0 3 9 6 20 6 11 0 20 5 20 10 0 15 17 12 23 -4z
m-221 -28 c-3 -13 -7 -17 -10 -10 -3 10 -7 10 -18 1 -11 -9 -14 -9 -14 0 0 6
10 16 23 21 12 5 23 9 24 9 0 1 -1 -9 -5 -21z m-92 -14 c-13 -32 -13 -47 -1
-39 5 3 12 1 16 -5 3 -5 2 -10 -4 -10 -5 0 -17 -3 -26 -7 -14 -5 -16 -2 -10
18 14 44 24 69 30 69 2 0 0 -12 -5 -26z m327 -6 c-3 -8 -6 -5 -6 6 -1 11 2 17
5 13 3 -3 4 -12 1 -19z m-159 -18 c-9 -14 -20 -20 -36 -17 -12 2 -25 0 -28 -4
-3 -5 0 -9 5 -9 6 0 11 -5 11 -11 0 -6 -10 -8 -22 -5 -13 3 -17 3 -10 0 6 -3
12 -10 12 -15 0 -5 -6 -8 -12 -6 -8 1 -12 -8 -11 -23 1 -14 -1 -19 -3 -13 -7
16 -51 -11 -57 -35 -3 -13 -6 -11 -15 10 -11 26 2 78 21 78 11 0 9 -28 -3 -35
-12 -8 -13 -25 -1 -25 5 0 14 15 21 33 7 17 20 38 28 45 9 6 11 12 5 12 -7 0
-15 -4 -18 -10 -11 -17 -24 -11 -22 10 1 12 7 18 14 16 7 -3 13 0 13 6 0 7 4
7 13 1 17 -13 43 -10 39 5 -1 9 3 9 19 0 17 -11 22 -10 30 5 6 10 13 16 16 14
2 -3 -2 -15 -9 -27z m287 10 c-19 -21 -50 -27 -59 -11 -3 4 6 6 19 3 17 -3 27
1 31 12 3 9 11 16 17 16 5 0 2 -9 -8 -20z m-5715 6 c0 -2 -7 -7 -16 -10 -8 -3
-12 -2 -9 4 6 10 25 14 25 6z m5780 -12 c0 -3 -5 -14 -10 -25 -13 -23 -2 -50
11 -27 7 12 21 14 60 9 3 -1 6 -8 6 -16 0 -17 -23 -20 -32 -5 -4 6 -12 7 -22
1 -9 -4 -24 -6 -34 -4 -11 3 -19 -2 -21 -14 -3 -15 -5 -15 -10 5 -4 15 -2 22
8 22 8 0 17 13 21 30 3 17 9 30 14 30 5 0 9 -3 9 -6z m-329 -57 c-13 -13 -26
-3 -16 12 3 6 11 8 17 5 6 -4 6 -10 -1 -17z m124 -7 c-3 -5 -13 -10 -21 -10
-8 0 -12 5 -9 10 3 6 13 10 21 10 8 0 12 -4 9 -10z m296 -17 c-12 -20 -14 -14
-5 12 4 9 9 14 11 11 3 -2 0 -13 -6 -23z m-391 -11 c0 -19 -18 -42 -32 -42 -4
0 -8 10 -7 23 0 12 3 16 6 10 8 -21 26 -15 20 7 -3 11 -1 20 4 20 5 0 9 -8 9
-18z m110 0 c0 -4 -10 -13 -22 -21 -23 -14 -23 -14 -4 8 20 22 26 25 26 13z
m244 -8 c3 -8 2 -12 -4 -9 -6 3 -10 10 -10 16 0 14 7 11 14 -7z m-640 -14
c-21 -8 -37 -3 -29 10 3 4 15 6 27 2 21 -5 21 -6 2 -12z m206 0 c0 -19 -36
-47 -48 -36 -3 3 0 6 6 6 7 0 12 7 12 15 0 8 5 15 11 15 5 0 7 5 4 10 -3 6 -1
10 4 10 6 0 11 -9 11 -20z m250 -11 c0 -5 -4 -9 -10 -9 -5 0 -10 7 -10 16 0 8
5 12 10 9 6 -3 10 -10 10 -16z m217 -6 c-15 -16 -17 -16 -17 -1 0 9 6 18 13
21 20 7 22 -2 4 -20z m-707 3 c0 -2 -8 -10 -17 -17 -16 -13 -17 -12 -4 4 13
16 21 21 21 13z m86 -59 c10 1 13 0 7 -3 -7 -3 -13 -12 -13 -20 0 -8 -5 -14
-11 -14 -6 0 -9 7 -5 15 3 9 0 15 -10 15 -11 0 -15 6 -11 20 3 13 0 20 -9 20
-12 0 -12 3 -2 14 11 12 15 9 24 -18 8 -21 17 -30 30 -29z m524 1 c0 -4 -11
-7 -25 -6 -14 1 -25 5 -25 9 0 4 -11 10 -25 13 -33 8 -32 20 3 33 24 9 30 7
49 -16 13 -14 23 -29 23 -33z m-672 24 c3 -17 -2 -22 -20 -21 -21 0 -21 1 -4
8 14 5 16 10 8 15 -16 10 -15 29 1 24 6 -3 13 -14 15 -26z m357 8 c3 -6 -1 -7
-9 -4 -18 7 -21 14 -7 14 6 0 13 -4 16 -10z m-205 -10 c0 -5 -4 -10 -10 -10
-5 0 -10 5 -10 10 0 6 5 10 10 10 6 0 10 -4 10 -10z m390 0 c0 -5 -5 -10 -11
-10 -5 0 -7 5 -4 10 3 6 8 10 11 10 2 0 4 -4 4 -10z m-121 -28 c0 -14 -2 -14
-8 2 -5 14 -10 16 -15 8 -4 -7 -13 -12 -19 -12 -7 0 -3 7 7 15 22 17 36 11 35
-13z m76 18 c3 -6 -1 -7 -9 -4 -18 7 -21 14 -7 14 6 0 13 -4 16 -10z m-45 -4
c0 -3 -4 -8 -10 -11 -5 -3 -10 -1 -10 4 0 6 5 11 10 11 6 0 10 -2 10 -4z m141
-10 c8 5 9 3 5 -5 -8 -12 23 -43 35 -35 4 2 11 -2 17 -9 8 -9 2 -13 -21 -14
-23 -2 -28 0 -17 7 12 7 10 11 -10 18 -14 5 -32 7 -40 5 -13 -4 -13 -4 0 6 8
6 12 11 8 12 -5 1 -12 3 -18 4 -5 1 -13 3 -17 4 -5 1 -1 5 7 11 9 5 19 5 27
-1 7 -6 18 -7 24 -3z m123 -47 c-17 -35 -40 -38 -39 -6 2 34 12 46 35 40 18
-5 18 -7 4 -34z m-854 17 c0 -2 -7 -6 -15 -10 -8 -3 -15 -1 -15 4 0 6 7 10 15
10 8 0 15 -2 15 -4z m920 -12 c0 -8 -5 -12 -10 -9 -6 4 -8 11 -5 16 9 14 15
11 15 -7z m-446 -20 c-15 -22 -19 -23 -26 -10 -12 21 -2 36 23 36 19 0 19 -1
3 -26z m51 -2 c-3 -3 -11 0 -18 7 -9 10 -8 11 6 5 10 -3 15 -9 12 -12z m77
-33 c-13 -15 -17 -15 -29 -4 -19 20 -16 34 7 30 13 -3 20 2 21 13 0 14 2 14 8
-2 5 -13 2 -26 -7 -37z m92 43 c3 -5 -1 -9 -9 -9 -8 0 -12 4 -9 9 3 4 7 8 9 8
2 0 6 -4 9 -8z m-434 -22 c0 -5 -8 -10 -17 -10 -15 0 -16 2 -3 10 19 12 20 12
20 0z m45 0 c-3 -5 -10 -10 -16 -10 -5 0 -9 5 -9 10 0 6 7 10 16 10 8 0 12 -4
9 -10z m462 -17 c2 -6 -5 -13 -15 -15 -15 -4 -18 -1 -14 14 5 19 23 20 29 1z
m103 7 c0 -5 -10 -10 -22 -9 -22 0 -22 1 -3 9 11 5 21 9 23 9 1 1 2 -3 2 -9z
m-157 -14 c4 -10 1 -13 -8 -9 -8 3 -12 9 -9 14 7 12 11 11 17 -5z m-367 -37
c-13 -19 -16 -20 -16 -6 0 9 5 17 11 17 6 0 8 7 4 18 -5 13 -3 14 6 5 9 -9 8
-17 -5 -34z m185 19 c22 -25 25 -35 6 -19 -8 6 -18 7 -22 3 -5 -4 -5 -1 -1 6
4 6 2 12 -3 12 -6 0 -11 5 -11 10 0 16 11 12 31 -12z m95 -24 c-9 -8 -16 -22
-16 -29 0 -8 -4 -16 -9 -19 -17 -11 -4 45 15 63 23 22 32 8 10 -15z m-243 3
c3 -8 -1 -14 -8 -14 -7 0 -11 6 -8 14 3 7 6 13 8 13 2 0 5 -6 8 -13z m427 -21
c0 -7 -6 -18 -12 -24 -10 -10 -10 -14 0 -21 10 -6 10 -10 -3 -21 -8 -7 -15
-10 -15 -6 0 15 -2 22 -12 34 -7 8 -7 12 1 12 7 0 9 9 5 24 -5 21 -3 24 15 19
12 -3 21 -11 21 -17z m37 -1 c0 -8 -7 -15 -15 -15 -12 0 -12 3 -2 15 7 8 13
15 15 15 1 0 2 -7 2 -15z m-353 -10 c3 -8 1 -15 -4 -15 -6 0 -10 7 -10 15 0 8
2 15 4 15 2 0 6 -7 10 -15z m-64 -11 c0 -19 -36 -24 -37 -5 -1 10 6 17 18 17
10 0 19 -6 19 -12z m30 -4 c0 -5 -5 -10 -11 -10 -5 0 -7 5 -4 10 3 6 8 10 11
10 2 0 4 -4 4 -10z m197 -12 c-3 -8 -6 -5 -6 6 -1 11 2 17 5 13 3 -3 4 -12 1
-19z m-107 -8 c0 -5 -2 -10 -4 -10 -3 0 -8 5 -11 10 -3 6 -1 10 4 10 6 0 11
-4 11 -10z m-578 -22 c-7 -7 -12 -8 -12 -2 0 14 12 26 19 19 2 -3 -1 -11 -7
-17z m473 12 c-3 -5 -1 -19 5 -30 7 -13 7 -20 0 -20 -5 0 -10 3 -10 8 0 4 -3
17 -6 30 -4 13 -2 22 5 22 7 0 9 -4 6 -10z m195 1 c0 -5 -7 -11 -14 -14 -10
-4 -13 -1 -9 9 6 15 23 19 23 5z m-124 -23 c-4 -27 -31 -36 -40 -13 -3 9 -2
13 4 10 6 -3 13 1 16 9 9 24 24 19 20 -6z m-926 -28 c-6 -11 -13 -20 -16 -20
-2 0 0 9 6 20 6 11 13 20 16 20 2 0 0 -9 -6 -20z m973 -1 c-4 -4 -19 -10 -33
-13 -23 -6 -23 -6 -8 7 17 14 56 20 41 6z"/>
<path d="M4376 1513 c-6 -14 -5 -15 5 -6 7 7 10 15 7 18 -3 3 -9 -2 -12 -12z"/>
<path d="M2856 1461 c-7 -11 -46 -133 -46 -144 0 -17 62 29 81 59 24 39 24 56
1 77 -21 19 -28 21 -36 8z"/>
<path d="M3047 1433 c-16 -36 -20 -66 -18 -107 1 -18 3 -18 26 4 27 25 41 76
31 115 -9 35 -20 31 -39 -12z"/>
<path d="M3540 1428 c-23 -50 -27 -122 -7 -116 23 7 54 83 49 121 -6 48 -19
47 -42 -5z"/>
<path d="M4450 1428 c-21 -46 -26 -103 -11 -113 13 -7 49 45 52 76 4 45 -1 79
-11 79 -6 0 -20 -19 -30 -42z"/>
<path d="M1560 1455 c-19 -23 -7 -39 13 -17 10 11 14 23 9 26 -5 3 -15 -1 -22
-9z"/>
<path d="M1520 1334 c-16 -40 -12 -46 19 -29 37 19 47 35 30 46 -24 15 -39 10
-49 -17z"/>
<path d="M1694 1249 c-3 -5 9 -9 25 -9 17 0 31 2 31 4 0 8 -51 13 -56 5z"/>
<path d="M3366 1401 c-4 -7 -5 -15 -2 -18 9 -9 19 4 14 18 -4 11 -6 11 -12 0z"/>
<path d="M4084 1434 c-20 -48 -28 -90 -20 -110 5 -14 9 -14 23 -3 27 23 44 77
37 115 -8 44 -21 43 -40 -2z"/>
<path d="M97 1373 c-4 -3 -7 -11 -7 -17 0 -6 5 -5 12 2 6 6 9 14 7 17 -3 3 -9
2 -12 -2z"/>
<path d="M1780 1015 c-23 -60 -24 -77 -4 -73 24 4 47 52 39 78 -9 27 -24 25
-35 -5z"/>
<path d="M1971 1010 c-22 -47 -28 -120 -11 -120 33 0 64 113 40 150 -7 11 -13
5 -29 -30z"/>
<path d="M2577 976 c-4 -10 -5 -21 -2 -24 9 -9 17 6 13 25 -3 17 -4 17 -11 -1z"/>
<path d="M3002 1023 c-24 -65 -44 -135 -38 -140 3 -3 26 15 52 40 51 51 57 88
18 114 -20 13 -22 11 -32 -14z"/>
<path d="M3201 1012 c-22 -43 -29 -122 -11 -122 18 0 50 64 50 100 0 60 -15
69 -39 22z"/>
<path d="M4240 971 c-7 -15 -7 -21 0 -21 12 0 25 28 17 36 -3 3 -10 -4 -17
-15z"/>
<path d="M5815 330 c-3 -5 -2 -10 4 -10 5 0 13 5 16 10 3 6 2 10 -4 10 -5 0
-13 -4 -16 -10z"/>
</g>
</svg>
