<?xml version="1.0" standalone="no"?>
<!DOCTYPE svg PUBLIC "-//W3C//DTD SVG 20010904//EN"
 "http://www.w3.org/TR/2001/REC-SVG-20010904/DTD/svg10.dtd">
<svg version="1.0" xmlns="http://www.w3.org/2000/svg"
 width="2364.000000pt" height="1073.000000pt" viewBox="0 0 2364.000000 1073.000000"
 preserveAspectRatio="xMidYMid meet">

<g transform="translate(0.000000,1073.000000) scale(0.100000,-0.100000)"
fill="#000000" stroke="none">
<path d="M0 5365 l0 -5365 5880 0 5880 0 0 5365 0 5365 -5880 0 -5880 0 0
-5365z m11419 1656 c17 -11 9 -104 -10 -127 -10 -12 -382 -14 -2543 -14 -1392
0 -2535 0 -2539 0 -4 0 -2 -10 4 -22 7 -13 14 -59 15 -102 3 -61 7 -84 22
-100 27 -29 35 -60 27 -108 -5 -28 -13 -42 -26 -45 -15 -4 -19 -15 -19 -51 0
-58 -19 -121 -40 -132 -10 -5 -20 -23 -23 -40 -5 -24 -12 -30 -33 -30 -23 0
-25 -3 -23 -37 2 -26 -1 -37 -9 -36 -7 2 -12 -2 -12 -8 0 -8 -4 -8 -13 -1 -10
9 -13 4 -15 -23 -2 -18 2 -36 8 -40 6 -3 8 -11 5 -16 -4 -5 4 -13 17 -18 21
-9 19 -10 -13 -10 -34 -1 -35 0 -31 29 4 26 1 30 -19 29 -17 0 -33 -14 -55
-47 -20 -32 -41 -50 -62 -57 -21 -6 -32 -15 -32 -28 0 -10 -17 -35 -38 -55
-20 -20 -43 -49 -49 -64 -12 -26 -10 -28 23 -44 19 -9 36 -15 38 -13 2 2 10
18 19 34 14 27 16 28 23 11 8 -21 -8 -52 -25 -49 -17 4 -13 -24 5 -31 9 -3 26
-6 39 -6 15 0 32 -11 44 -29 12 -16 32 -32 46 -35 13 -3 29 -15 35 -26 6 -11
18 -20 26 -20 33 0 73 -31 94 -75 12 -25 28 -45 36 -45 27 0 37 -41 30 -129
-3 -46 -10 -89 -15 -95 -5 -6 -11 -20 -13 -31 -2 -11 -10 -20 -18 -20 -8 0
-22 -16 -32 -36 -10 -22 -29 -41 -48 -49 -18 -7 -35 -23 -40 -35 -7 -17 -14
-21 -33 -18 -18 4 -28 -1 -36 -16 -7 -12 -21 -21 -32 -21 -17 0 -20 -5 -17
-32 3 -30 7 -33 43 -38 25 -4 52 -17 71 -35 53 -50 63 -56 99 -57 23 -1 39 -8
45 -19 8 -14 3 -21 -28 -36 -38 -19 -54 -55 -33 -76 17 -17 13 -26 -9 -20 -18
5 -20 0 -20 -46 0 -46 -3 -53 -26 -61 -14 -6 -41 -10 -60 -10 -28 0 -34 -4
-34 -21 0 -13 -8 -23 -20 -26 l-21 -6 21 -14 c11 -8 20 -21 20 -29 0 -8 10
-14 23 -14 12 0 30 -7 40 -15 22 -16 57 -78 57 -100 0 -8 7 -15 15 -15 9 0 21
-11 27 -25 9 -21 8 -32 -5 -61 -9 -19 -17 -41 -17 -48 0 -24 -33 -79 -50 -83
-21 -5 -30 -59 -30 -169 0 -72 -1 -74 -27 -81 -59 -14 -121 -9 -144 13 -31 32
-38 126 -12 184 11 25 23 57 27 72 3 14 17 40 31 56 19 23 25 41 25 79 0 27
-6 56 -12 64 -21 25 -90 74 -123 87 -26 11 -75 75 -75 99 0 20 78 93 110 105
61 20 100 59 100 97 0 37 -36 87 -80 111 -97 53 -130 89 -130 141 0 25 57 97
90 114 14 7 38 25 53 39 15 14 32 26 38 26 12 0 89 77 89 90 0 5 9 18 21 29
11 10 23 37 26 58 4 31 0 45 -19 68 -14 17 -27 35 -29 42 -5 16 -64 58 -115
83 -22 10 -49 28 -59 40 -10 11 -24 20 -31 20 -7 0 -28 13 -46 28 -18 15 -45
33 -60 40 -16 6 -28 16 -28 20 0 5 -13 23 -30 40 -24 26 -30 41 -30 76 0 57
19 82 166 213 20 17 40 36 46 41 19 18 50 50 62 62 6 7 23 24 39 38 15 15 27
30 27 35 0 5 10 23 23 40 50 71 86 158 93 227 8 88 -3 216 -22 235 -8 7 -23
35 -34 60 -11 26 -33 60 -49 76 l-29 29 -2584 0 c-1421 0 -2660 0 -2753 0
-166 0 -171 -1 -196 -24 -25 -23 -26 -28 -27 -151 -1 -70 -4 -130 -7 -133 -3
-3 -5 55 -5 130 0 74 -5 160 -11 191 -9 44 -9 60 1 72 11 13 604 15 5474 15
3147 0 5467 -4 5475 -9z m-4687 -296 c4 -20 3 -23 -8 -14 -16 13 -19 39 -5 39
5 0 11 -11 13 -25z m47 -1 c-13 -14 -25 -20 -27 -14 -7 20 7 40 29 40 l22 0
-24 -26z m-129 -59 c11 -13 10 -14 -4 -9 -9 3 -16 10 -16 15 0 13 6 11 20 -6z
m-6160 -2525 c-3 -96 -6 408 -6 1120 l1 1295 5 -1120 c3 -616 3 -1199 0 -1295z
m5898 2108 c20 -20 14 -55 -13 -72 -30 -20 -45 -14 -45 19 0 13 -7 30 -15 38
-11 12 -12 17 -2 20 23 10 63 7 75 -5z m2987 -134 c27 -28 15 -58 -28 -68 -44
-11 -70 0 -75 31 -4 28 23 53 58 53 16 0 36 -7 45 -16z m-2280 -6 c10 -32 9
-51 -5 -58 -49 -25 -69 -32 -79 -26 -15 10 -14 69 1 84 16 16 77 15 83 0z
m1859 6 c25 -10 20 -52 -6 -56 -40 -5 -86 4 -92 18 -3 8 0 11 10 7 7 -3 14 0
14 6 0 6 6 8 14 5 7 -3 16 2 19 10 7 17 16 19 41 10z m616 -15 c0 -9 2 -24 6
-32 4 -11 -5 -14 -43 -13 -37 1 -48 5 -51 19 -6 28 17 46 54 45 25 -1 34 -6
34 -19z m786 -15 c-3 -47 -24 -59 -53 -32 -29 27 -29 42 0 56 43 21 56 15 53
-24z m-2686 6 c0 -12 7 -21 18 -21 9 -1 -8 -5 -38 -9 -30 -4 -57 -6 -58 -4
-11 8 12 43 31 47 42 8 47 7 47 -13z m466 -5 c8 -34 3 -38 -39 -30 -27 5 -34
11 -30 25 5 18 19 26 50 29 7 0 15 -10 19 -24z m264 2 c0 -25 22 -49 53 -60
16 -6 24 -47 11 -60 -8 -8 -86 33 -101 53 -7 8 -18 26 -25 39 -11 20 -10 25 7
37 30 22 55 18 55 -9z m308 11 c17 -17 15 -26 -9 -38 -15 -9 -24 -8 -37 2 -13
11 -14 11 -7 -1 5 -10 4 -12 -3 -7 -17 10 -15 26 3 26 8 0 15 7 15 15 0 18 21
20 38 3z m1422 -3 c18 -21 5 -45 -25 -45 -21 0 -25 5 -25 30 0 23 5 30 19 30
10 0 24 -7 31 -15z m447 -5 c9 -13 9 -21 2 -26 -6 -3 -8 -15 -6 -26 4 -14 1
-18 -11 -16 -12 2 -18 15 -20 46 -3 46 14 57 35 22z m-3227 -10 c10 -18 8 -20
-20 -20 -23 0 -30 4 -30 20 0 13 7 20 20 20 10 0 24 -9 30 -20z m1243 6 c23
-18 21 -26 -7 -26 -25 0 -51 22 -39 33 10 10 26 8 46 -7z m1057 -1 c0 -8 -4
-15 -9 -15 -13 0 -22 16 -14 24 11 11 23 6 23 -9z m-1695 -27 c4 -18 12 -39
17 -45 14 -17 -30 -34 -54 -21 -20 10 -22 21 -9 46 5 9 12 25 15 35 9 27 24
20 31 -15z m-1085 7 c0 -8 -4 -15 -9 -15 -13 0 -22 16 -14 24 11 11 23 6 23
-9z m2262 -35 c35 0 13 -25 -25 -28 l-37 -3 0 42 0 42 21 -27 c11 -14 29 -26
41 -26z m-1673 6 c15 -18 1 -86 -20 -99 -9 -6 -23 -8 -32 -4 -12 5 -14 13 -6
49 5 24 12 49 14 56 6 16 30 15 44 -2z m2011 -20 c0 -7 -11 -23 -24 -36 -34
-31 -58 -21 -54 22 2 25 9 34 28 39 27 6 50 -6 50 -25z m268 -32 c4 -22 16
-52 28 -66 19 -24 29 -27 90 -30 67 -3 69 -4 72 -30 2 -19 10 -28 25 -30 14
-2 23 -11 25 -26 2 -13 14 -28 27 -34 23 -10 45 -53 45 -88 0 -10 9 -20 21
-23 11 -3 23 -15 26 -27 5 -17 12 -21 33 -18 26 4 27 2 23 -33 -4 -34 -1 -39
25 -53 23 -12 32 -25 37 -56 5 -30 11 -40 26 -40 36 0 38 99 1 101 -13 0 -12
3 6 11 22 11 23 14 21 159 -1 148 7 189 36 189 7 0 15 6 18 13 3 10 9 10 26 0
31 -19 121 -17 121 2 0 9 10 15 26 15 20 0 28 -8 41 -37 13 -33 16 -104 17
-488 1 -437 0 -451 -20 -485 -14 -25 -27 -35 -47 -36 -14 -1 -28 5 -31 12 -7
19 -60 18 -101 -2 -32 -15 -35 -14 -54 5 -12 12 -29 21 -38 21 -33 0 -103 -79
-103 -115 0 -8 -4 -15 -10 -15 -11 0 -13 110 -2 126 4 5 23 10 42 10 51 -1 53
32 6 79 -20 20 -36 42 -36 50 0 8 -11 22 -25 31 -13 9 -27 23 -30 32 -3 10
-21 28 -41 41 -33 23 -35 27 -29 62 6 34 4 38 -17 41 -18 2 -24 11 -28 37 -5
37 -17 46 -40 31 -11 -7 -15 -27 -14 -73 1 -68 16 -97 45 -90 17 5 34 -23 19
-32 -4 -3 -19 -1 -33 4 -14 5 -28 7 -31 4 -3 -4 -6 -51 -6 -105 0 -82 -3 -101
-18 -116 -16 -16 -17 -22 -6 -37 17 -23 64 -13 64 14 0 10 9 30 20 44 11 14
20 30 20 35 0 12 28 25 58 27 30 1 28 -9 -9 -55 -30 -37 -30 -40 -15 -61 9
-13 16 -29 16 -36 0 -21 -48 -15 -64 8 -16 24 -36 18 -36 -12 0 -28 -85 -28
-100 1 -8 15 -23 20 -73 22 -51 2 -62 6 -59 19 2 12 -8 19 -32 23 -20 4 -38
12 -42 18 -4 6 -7 78 -7 160 1 114 -2 150 -13 156 -11 6 -11 15 2 52 12 34 14
63 9 115 -4 39 -6 75 -5 80 1 6 4 67 7 136 3 105 1 129 -11 142 -19 18 -20 52
-5 96 10 29 14 31 61 31 51 0 52 8 3 36 -16 9 -19 20 -16 50 1 22 8 47 13 58
9 16 12 16 24 4 8 -8 18 -32 22 -54z m144 32 c18 -27 -35 -36 -68 -11 -16 13
-17 16 -4 24 17 11 61 3 72 -13z m-3748 8 c21 -8 20 -38 0 -59 -12 -12 -19
-13 -30 -4 -17 14 -18 56 -1 62 6 3 13 6 14 6 1 1 8 -2 17 -5z m227 -4 c23
-13 24 -24 4 -44 -14 -14 -18 -13 -35 4 -11 11 -24 20 -30 20 -5 0 -10 7 -10
15 0 18 41 20 71 5z m916 -6 c2 -6 -9 -14 -26 -17 -30 -6 -87 -58 -96 -89 -8
-24 -52 -51 -58 -35 -3 6 -6 -2 -6 -18 -1 -17 4 -36 10 -42 5 -5 13 -35 16
-64 4 -44 2 -57 -11 -68 -15 -13 -20 -12 -39 7 -20 21 -21 24 -8 79 8 32 13
75 13 96 -1 25 3 37 12 37 7 0 21 20 30 45 24 62 58 87 115 83 24 -2 46 -8 48
-14z m2803 8 c0 -2 -6 -15 -14 -30 -12 -23 -12 -33 0 -67 7 -22 14 -41 14 -42
0 -1 -9 -7 -21 -13 -16 -9 -28 -9 -50 0 -34 15 -36 23 -9 50 20 20 25 41 13
54 -15 15 -12 45 5 49 19 4 62 4 62 -1z m-487 -39 c-3 -21 -12 -44 -21 -50
-22 -18 -59 -16 -66 3 -9 22 11 44 40 44 13 0 28 9 34 20 16 29 19 25 13 -17z
m-2612 -120 c-2 -21 -9 -33 -18 -33 -11 0 -13 5 -8 18 4 9 10 51 14 92 l6 75
5 -60 c3 -33 3 -75 1 -92z m1718 115 c29 -30 11 -48 -49 -48 -39 0 -48 3 -46
17 3 19 42 53 62 53 7 0 22 -10 33 -22z m335 14 c3 -5 6 -26 8 -46 3 -43 20
-56 71 -56 21 0 41 7 52 20 10 11 25 20 32 20 8 0 17 -9 20 -20 5 -17 14 -20
69 -20 72 0 87 18 34 42 -35 15 -34 35 1 29 13 -3 33 -5 45 -5 18 -1 20 -4 12
-27 -19 -55 65 -137 86 -84 4 11 13 14 33 9 41 -10 47 -19 28 -47 -10 -17 -13
-27 -6 -32 6 -3 11 -22 11 -41 0 -24 5 -34 15 -34 30 0 49 -37 47 -87 -5 -88
-24 -163 -43 -174 -11 -5 -19 -20 -19 -33 0 -28 -64 -96 -90 -96 -25 0 -28
-51 -4 -71 9 -8 28 -32 42 -54 14 -22 31 -44 38 -48 8 -4 14 -21 14 -36 0 -21
6 -30 23 -35 12 -3 35 -16 52 -29 28 -24 29 -25 12 -50 -9 -15 -17 -37 -17
-51 0 -34 -55 -80 -80 -66 -47 25 -85 -3 -85 -64 0 -38 -2 -40 -42 -52 -37
-11 -43 -11 -43 2 0 20 27 71 40 76 7 2 6 14 -2 36 -13 35 -51 45 -62 17 -7
-19 -30 -19 -46 -1 -9 12 -7 17 9 28 12 7 21 23 21 36 0 17 -7 24 -30 29 -24
4 -30 10 -30 33 0 17 -11 36 -30 53 -18 17 -30 37 -30 52 0 30 -22 33 -41 5
-13 -19 -16 -19 -41 -6 l-28 15 0 -74 c0 -59 3 -76 17 -83 15 -9 14 -13 -13
-41 -16 -17 -36 -31 -44 -31 -9 0 -21 -5 -28 -12 -9 -9 -12 -9 -12 -1 0 19
-43 10 -48 -9 -6 -23 -64 -25 -85 -3 -14 13 -20 13 -58 0 -24 -9 -51 -23 -60
-31 -26 -23 -39 -9 -32 34 7 47 7 46 48 44 47 -3 63 25 34 62 -11 14 -27 26
-35 26 -21 0 -17 18 5 25 11 3 23 15 27 27 8 27 -5 166 -17 174 -11 6 -1 74
12 88 17 19 10 110 -11 136 -16 22 -17 27 -4 41 11 12 15 49 18 140 2 68 0
102 -3 74 l-6 -50 -75 -5 c-41 -3 -130 -4 -197 -2 l-123 3 0 -65 c0 -37 2 -66
5 -66 2 0 23 7 45 16 25 10 49 13 63 9 12 -5 60 -11 107 -14 l85 -6 24 -49
c33 -67 33 -122 1 -169 -32 -47 -59 -60 -116 -59 -59 0 -94 -12 -95 -35 0 -11
-3 -13 -6 -5 -2 6 -9 10 -14 6 -5 -3 -16 2 -25 10 -17 18 -62 32 -71 22 -4 -3
-1 -36 6 -73 8 -46 9 -69 2 -76 -20 -20 -13 -105 9 -127 24 -24 25 -30 5 -30
-8 0 -19 -9 -25 -20 -6 -11 -23 -23 -38 -26 -15 -4 -34 -12 -42 -19 -8 -7 -31
-15 -52 -18 -28 -4 -40 -1 -54 14 -20 23 -57 25 -74 4 -7 -8 -19 -15 -26 -15
-8 0 -19 -11 -24 -25 -7 -19 -17 -25 -39 -25 -16 0 -32 4 -35 8 -3 5 22 33 55
62 32 30 59 58 59 62 0 4 -5 19 -11 35 l-11 28 -23 -28 -24 -27 -16 30 c-21
41 -11 53 36 47 l39 -5 0 413 c0 363 2 416 16 429 13 13 45 16 190 16 148 0
174 2 174 15 0 16 21 16 32 0 4 -5 62 -12 128 -15 135 -6 139 -8 141 -75 l1
-40 7 37 c9 43 25 65 54 74 12 3 29 13 38 20 14 13 18 12 29 -1 7 -8 28 -15
46 -15 32 0 34 2 28 28 -4 15 -7 29 -7 32 -1 3 4 15 11 28 13 23 27 28 36 14z
m1256 -7 c6 -8 10 -22 8 -31 -2 -15 -15 -18 -63 -19 -51 -1 -61 -4 -70 -23
-15 -33 -25 -26 -14 10 5 18 9 34 9 35 0 2 10 3 23 3 12 0 36 9 52 20 36 24
39 24 55 5z m-2150 -18 c24 -10 45 -12 83 -5 44 8 53 7 64 -9 17 -23 2 -29
-36 -14 -20 9 -39 9 -72 1 -95 -24 -89 -24 -89 2 0 21 7 38 16 38 1 0 16 -6
34 -13z m-373 -13 c2 -7 -11 -14 -29 -17 -39 -5 -43 -3 -34 18 7 19 57 17 63
-1z m-1692 -4 c3 -5 -1 -10 -10 -10 -9 0 -13 5 -10 10 3 6 8 10 10 10 2 0 7
-4 10 -10z m1529 -25 c9 -46 2 -55 -38 -55 -46 0 -58 17 -41 58 11 26 20 32
43 32 26 0 31 -4 36 -35z m2341 29 c12 -5 14 -9 4 -14 -14 -9 -39 -2 -39 11 0
11 12 11 35 3z m515 -8 c0 -3 -4 -8 -10 -11 -5 -3 -10 -1 -10 4 0 6 5 11 10
11 6 0 10 -2 10 -4z m-4326 -22 c8 -20 8 -59 0 -67 -4 -3 -15 -2 -25 4 -19 9
-27 58 -12 72 11 12 31 7 37 -9z m1754 -34 c16 0 42 7 58 15 20 10 32 11 41 3
9 -7 17 -7 28 2 15 12 55 5 55 -10 0 -5 -9 -14 -20 -20 -24 -13 -26 -40 -5
-79 8 -16 12 -31 9 -34 -7 -7 -8 -436 -1 -443 8 -8 -13 -87 -38 -140 -23 -48
-25 -94 -4 -94 22 0 6 -30 -25 -50 -28 -17 -35 -28 -38 -58 -3 -34 -6 -37 -30
-34 -18 2 -35 -6 -52 -23 -20 -20 -36 -25 -78 -26 -29 -1 -60 0 -67 1 -12 1
-13 -1 -3 -13 14 -17 10 -59 -6 -65 -11 -3 -16 9 -13 34 2 16 -31 23 -71 15
-45 -9 -257 17 -285 35 -13 8 -23 23 -23 34 0 13 -7 20 -18 20 -23 0 -42 19
-42 41 0 10 -9 24 -20 32 -11 8 -25 29 -30 48 -8 26 -16 615 -11 756 1 20 11
42 26 58 30 29 34 30 61 10 12 -8 42 -14 68 -13 36 0 52 -5 67 -20 10 -12 25
-19 32 -16 7 2 28 -14 47 -37 38 -48 34 -68 -19 -83 -24 -7 -30 -13 -25 -25
13 -29 15 -313 2 -328 -8 -10 -8 -20 -1 -36 16 -35 41 -128 45 -167 2 -24 9
-37 23 -42 26 -8 114 -9 141 -2 25 7 50 53 59 107 4 22 11 37 20 37 7 0 16 9
20 19 3 10 5 140 4 288 -2 212 1 276 12 301 17 38 38 45 61 20 9 -10 30 -18
46 -18z m-1574 13 c3 -10 6 -34 8 -53 3 -35 2 -35 -35 -34 -47 2 -51 5 -42 43
11 53 58 82 69 44z m-1545 -22 c11 -11 23 -37 27 -58 3 -21 16 -54 29 -73 12
-19 25 -49 28 -66 3 -18 17 -48 30 -67 13 -20 27 -53 30 -75 4 -21 16 -49 27
-62 11 -12 22 -39 26 -59 3 -20 17 -52 29 -71 13 -19 26 -50 30 -69 4 -18 17
-48 30 -66 12 -19 25 -52 29 -74 3 -23 10 -41 15 -41 14 0 41 -76 41 -114 0
-51 -21 -66 -91 -66 -70 0 -100 22 -119 86 -6 22 -24 62 -39 89 l-28 50 -114
3 c-127 3 -179 -3 -179 -21 0 -7 -13 -39 -30 -72 -16 -33 -30 -67 -30 -75 0
-9 -7 -26 -16 -38 -13 -19 -24 -22 -83 -22 -92 0 -105 11 -99 83 3 34 12 64
22 76 10 10 24 41 32 67 8 26 21 59 30 72 9 13 22 45 30 72 8 26 21 53 29 60
8 7 17 28 21 49 4 20 20 60 35 90 16 30 29 61 29 70 0 9 11 32 24 51 12 19 26
51 30 71 3 21 15 48 25 61 11 13 25 48 33 78 10 41 19 58 38 67 35 18 57 16
79 -6z m-2910 -25 c27 -25 41 -75 34 -126 -8 -55 -23 -61 -128 -49 -159 18
-229 -8 -300 -111 -37 -53 -49 -173 -30 -284 19 -107 47 -140 158 -180 68 -25
84 -27 115 -18 21 6 64 14 97 17 53 6 62 5 79 -14 15 -16 18 -32 14 -81 -7
-95 -7 -95 -218 -95 -165 0 -180 2 -207 21 -15 11 -43 26 -62 32 -68 24 -166
152 -176 231 -4 25 -13 68 -22 94 -16 52 -15 69 12 222 13 76 23 106 41 126
13 14 24 30 24 36 0 17 124 143 141 143 7 0 41 14 74 31 59 30 62 30 196 27
118 -3 140 -6 158 -22z m741 15 c31 -8 70 -74 70 -118 0 -23 -8 -38 -27 -53
-26 -20 -35 -22 -123 -16 -170 11 -240 -22 -303 -144 -22 -43 -30 -73 -34
-137 -5 -75 -3 -87 21 -136 14 -30 26 -58 26 -64 0 -20 72 -77 122 -97 58 -22
161 -26 197 -7 11 6 40 11 65 11 55 0 66 -15 66 -89 0 -38 -6 -56 -24 -78
l-24 -28 -185 0 -184 0 -39 28 c-22 15 -44 27 -50 27 -9 0 -50 39 -114 108
-16 18 -30 41 -30 51 0 10 -10 31 -21 46 -42 52 -45 350 -5 394 9 10 22 39 30
65 8 27 24 55 35 63 12 8 21 21 21 28 0 8 12 22 28 32 15 10 35 27 44 39 10
12 32 24 50 28 17 3 40 13 49 22 10 9 33 20 51 24 41 10 254 11 288 1z m357
-9 c24 -15 33 -67 33 -194 0 -115 2 -133 21 -159 l20 -29 124 0 123 0 22 35
c13 22 20 46 18 60 -3 14 -2 76 2 140 9 141 17 155 96 155 57 0 77 -13 96 -59
14 -33 19 -760 6 -814 -14 -58 -38 -77 -101 -77 -86 0 -91 11 -95 189 -3 158
-12 196 -45 205 -28 7 -215 7 -243 0 -36 -10 -44 -46 -44 -197 0 -182 -4 -191
-86 -195 -48 -2 -66 1 -85 17 l-24 19 -3 414 c-1 227 0 423 3 436 11 43 41 62
98 62 28 0 57 -4 64 -8z m907 -14 c14 -19 16 -71 16 -368 0 -256 3 -349 12
-358 8 -8 64 -12 185 -12 l173 0 16 -25 c10 -16 17 -48 18 -81 1 -87 8 -85
-308 -82 l-270 3 -13 25 c-10 19 -13 128 -13 450 0 501 -7 470 100 470 60 0
71 -3 84 -22z m2288 0 c-7 -7 -12 -8 -12 -2 0 14 12 26 19 19 2 -3 -1 -11 -7
-17z m4654 -20 c6 -20 -2 -115 -13 -152 -9 -30 -21 0 -29 71 -8 75 0 115 21
107 8 -3 17 -15 21 -26z m-4601 -2 c-3 -6 -8 -19 -11 -28 -4 -10 -11 -18 -17
-18 -5 0 -16 8 -23 18 -10 14 -10 20 2 33 16 18 58 14 49 -5z m735 5 c0 -11
-5 -42 -12 -70 -11 -49 -13 -51 -45 -51 -38 0 -43 11 -11 25 15 7 25 23 30 50
5 22 10 46 13 53 7 19 25 14 25 -7z m-559 -32 c28 -15 24 -83 -4 -75 -14 3
-31 -8 -58 -37 -22 -22 -39 -36 -39 -30 0 7 -15 19 -34 28 -24 12 -32 21 -29
34 4 15 12 18 49 13 46 -5 46 -5 58 51 7 29 24 34 57 16z m1289 -18 c0 -37
-25 -47 -56 -22 -26 21 -22 27 24 41 15 5 28 9 30 9 1 1 2 -12 2 -28z m2444
-6 c-4 -8 -10 -15 -15 -15 -5 0 -9 7 -9 15 0 8 7 15 15 15 9 0 12 -6 9 -15z
m502 -122 c-10 -10 -19 5 -10 18 6 11 8 11 12 0 2 -7 1 -15 -2 -18z m-3630 6
c3 -6 1 -16 -4 -21 -13 -13 -45 8 -36 23 7 12 31 11 40 -2z m614 5 c0 -4 -14
-22 -30 -41 -23 -26 -31 -30 -35 -18 -3 8 -7 22 -10 31 -3 9 -3 20 1 25 6 10
74 13 74 3z m-671 -61 c-2 -68 -12 -102 -23 -84 -8 12 12 141 21 141 2 0 3
-26 2 -57z m3921 -203 c0 -127 -4 -200 -10 -200 -6 0 -10 73 -10 200 0 127 4
200 10 200 6 0 10 -73 10 -200z m-3231 124 c23 -38 27 -64 11 -64 -5 0 -10 -9
-10 -19 0 -32 -11 -51 -30 -51 -39 0 -51 60 -15 74 10 4 15 20 15 51 0 25 2
45 4 45 2 0 13 -16 25 -36z m1980 -170 c-16 -20 -33 -3 -24 25 6 19 8 19 22 6
12 -13 13 -18 2 -31z m-41 -68 c4 -35 -5 -76 -18 -76 -18 0 -31 40 -24 76 8
43 37 44 42 0z m-2628 -40 c0 -25 -5 -48 -11 -51 -15 -10 -16 -6 -11 48 5 60
22 62 22 3z m-539 -2 c13 -15 4 -34 -16 -34 -8 0 -17 -11 -21 -25 -3 -14 -10
-25 -14 -25 -11 0 -17 89 -7 99 11 11 43 3 58 -15z m1261 -46 c-7 -7 -12 -8
-12 -2 0 14 12 26 19 19 2 -3 -1 -11 -7 -17z m-1328 -67 c-5 -5 -18 -11 -29
-13 -31 -5 -34 39 -3 51 18 7 25 5 32 -10 6 -12 6 -23 0 -28z m679 22 c9 -21
9 -27 -1 -31 -6 -2 -12 -11 -12 -21 0 -20 -27 -61 -41 -61 -6 0 -8 3 -5 8 2 4
5 30 7 57 4 75 29 98 52 48z m2597 13 c0 -8 6 -16 13 -19 21 -8 -6 -27 -30
-21 -19 5 -20 9 -11 30 12 26 28 32 28 10z m-1010 -17 c9 -17 8 -23 -7 -34
-21 -17 -33 -15 -47 7 -7 12 -6 21 3 32 18 22 38 20 51 -5z m2058 9 c9 -9 7
-17 -10 -35 -28 -30 -38 -29 -38 5 0 42 22 56 48 30z m-3778 -48 c0 -43 -13
-58 -35 -40 -20 16 -19 49 1 71 23 25 34 15 34 -31z m220 24 c0 -8 -4 -14 -10
-14 -5 0 -10 9 -10 21 0 11 5 17 10 14 6 -3 10 -13 10 -21z m3716 -77 c8 -64
-10 -127 -30 -107 -12 12 -14 119 -2 165 6 24 9 27 17 14 4 -9 11 -42 15 -72z
m-4560 38 c7 -2 14 -20 16 -40 3 -28 0 -39 -14 -46 -27 -14 -69 31 -66 70 2
31 9 33 64 16z m919 -75 c3 -16 17 -36 30 -44 21 -14 23 -22 20 -63 -2 -27 -4
-56 -4 -65 -1 -24 -59 -88 -80 -88 -27 0 -23 38 7 58 39 24 51 43 52 77 0 32
-5 43 -32 63 -14 11 -21 11 -45 -1 -15 -8 -34 -12 -40 -10 -8 3 -13 -3 -13
-14 0 -21 -27 -63 -39 -63 -25 0 -20 64 6 74 9 4 12 1 7 -7 -4 -6 8 2 26 19
18 18 34 44 36 60 3 35 32 59 50 43 7 -6 16 -23 19 -39z m1513 20 c17 -11 32
-21 32 -23 0 -2 -7 -18 -16 -36 -16 -32 -16 -32 -38 -14 -11 11 -33 24 -48 31
-32 13 -38 48 -10 55 33 9 47 7 80 -13z m-2297 -10 c22 -12 27 -68 7 -88 -21
-21 -48 -14 -59 15 -6 16 -17 35 -25 44 -14 15 -12 18 13 27 37 14 41 14 64 2z
m2834 -60 c7 -11 -12 -40 -25 -40 -11 0 -21 30 -14 41 7 12 31 11 39 -1z
m-1982 -65 c-7 -21 -12 -19 -10 4 0 11 5 18 9 15 4 -3 5 -11 1 -19z m1347 -34
c0 -32 -14 -41 -67 -41 -20 0 -53 -5 -75 -12 -33 -10 -41 -9 -55 4 -23 24 -10
35 48 40 34 4 55 11 61 22 6 10 22 16 48 16 37 0 40 -2 40 -29z m-2204 -22 c3
-6 0 -15 -7 -20 -22 -14 -29 -11 -29 11 0 21 24 27 36 9z m1534 1 c0 -12 -28
-25 -36 -17 -9 9 6 27 22 27 8 0 14 -5 14 -10z m1240 -4 c0 -17 -69 -29 -87
-14 -24 20 -13 28 37 28 36 0 50 -4 50 -14z m544 5 c3 -5 -1 -12 -10 -15 -27
-10 -44 -7 -44 9 0 16 45 21 54 6z m-114 -72 c0 -11 -30 -39 -40 -39 -19 0
-30 38 -20 66 l11 27 24 -23 c14 -13 25 -27 25 -31z m-2244 -14 c-3 -8 -12
-15 -20 -15 -20 0 -30 38 -15 56 10 12 14 12 26 -6 8 -12 12 -27 9 -35z m99 5
c-14 -13 -17 -13 -25 -1 -5 9 -4 23 2 35 10 19 11 19 24 1 12 -16 12 -21 -1
-35z m435 22 c0 -57 -80 -69 -88 -13 -4 23 23 39 66 40 18 1 22 -4 22 -27z
m1098 2 c-2 -15 -14 -32 -30 -42 -25 -15 -28 -15 -47 3 -29 26 -27 31 22 48
57 21 59 21 55 -9z m1379 -4 c5 -28 -11 -39 -47 -31 -26 5 -36 13 -38 29 -3
22 0 23 40 20 28 -2 44 -8 45 -18z m-2667 -5 c0 -8 -12 -17 -27 -21 -16 -3
-34 -7 -40 -10 -8 -2 -13 6 -13 21 0 22 4 25 40 25 29 0 40 -4 40 -15z m469
-28 c27 -55 27 -57 -9 -57 -34 0 -50 23 -50 69 0 48 33 41 59 -12z m2079 -9
c25 -25 1 -91 -26 -74 -16 10 -24 57 -11 72 14 17 21 18 37 2z m336 -3 c8 -21
-3 -45 -20 -45 -8 0 -14 10 -14 23 0 36 22 51 34 22z m-3575 -9 c9 -10 8 -16
-4 -26 -13 -11 -15 -8 -15 14 0 30 3 32 19 12z m972 4 c25 -14 24 -46 -1 -60
-41 -22 -83 36 -42 59 21 13 20 13 43 1z m545 -4 c19 -15 19 -15 -2 -36 -17
-17 -25 -19 -47 -11 -25 10 -36 39 -20 54 11 12 48 8 69 -7z m144 -1 c15 -18
13 -20 -17 -29 -18 -6 -23 -3 -23 12 0 33 19 42 40 17z m1420 -21 c0 -17 -6
-24 -19 -24 -26 0 -36 31 -15 47 22 16 34 8 34 -23z m-2682 -2 c-1 -15 1 -33
6 -40 5 -8 -1 -12 -19 -12 -17 0 -29 -7 -35 -22 l-9 -23 0 22 c-1 12 4 25 10
29 6 3 8 15 6 26 -8 29 2 48 24 48 15 0 19 -6 17 -28z m956 13 c4 -12 -3 -15
-29 -15 -24 0 -35 5 -35 15 0 10 10 15 29 15 16 0 31 -6 35 -15z m465 3 c0 -7
-4 -22 -9 -33 -7 -19 -8 -19 -18 5 -5 14 -8 28 -5 33 7 12 33 8 32 -5z m514 6
c8 -9 -11 -44 -24 -44 -16 0 -23 31 -8 41 17 10 24 11 32 3z m612 -4 c4 -6
-10 -10 -35 -10 -25 0 -39 4 -35 10 3 6 19 10 35 10 16 0 32 -4 35 -10z
m-2445 -10 c0 -5 -5 -10 -11 -10 -5 0 -7 5 -4 10 3 6 8 10 11 10 2 0 4 -4 4
-10z m227 -12 c-3 -8 -6 -5 -6 6 -1 11 2 17 5 13 3 -3 4 -12 1 -19z m1793 14
c0 -4 -9 -13 -20 -20 -11 -7 -20 -10 -20 -8 0 2 -3 11 -6 20 -5 12 0 16 20 16
14 0 26 -3 26 -8z m148 -3 c-2 -6 -8 -10 -13 -10 -5 0 -11 4 -13 10 -2 6 4 11
13 11 9 0 15 -5 13 -11z m-3348 -45 c0 -19 7 -24 38 -31 20 -4 41 -6 45 -5 5
1 7 -12 5 -30 -3 -29 -7 -33 -36 -36 -38 -4 -59 10 -64 41 -2 12 -13 26 -25
32 -27 12 -29 22 -7 46 20 23 44 14 44 -17z m1757 -65 c1 -19 1 -20 -4 -4 -3
11 -10 24 -17 28 -7 6 -6 7 4 4 8 -2 16 -14 17 -28z m-70 -91 c-2 -13 -4 -3
-4 22 0 25 2 35 4 23 2 -13 2 -33 0 -45z m-1734 46 c13 -14 -7 -34 -34 -34
-27 0 -39 17 -22 33 8 9 48 9 56 1z m2874 -13 c0 -11 -5 -18 -9 -15 -4 3 -5
11 -1 19 7 21 12 19 10 -4z m1303 9 c0 -5 -11 -10 -25 -10 -14 0 -25 5 -25 10
0 6 11 10 25 10 14 0 25 -4 25 -10z m-2350 -31 c0 -6 -4 -7 -10 -4 -5 3 -10
11 -10 16 0 6 5 7 10 4 6 -3 10 -11 10 -16z m-1770 -40 c0 -13 -29 -31 -40
-24 -14 9 -13 38 2 53 10 10 15 9 25 -5 7 -9 13 -20 13 -24z m1382 -19 c-3
-35 0 -50 9 -50 7 0 9 -3 6 -7 -11 -10 -47 28 -47 49 0 18 20 58 30 58 3 0 3
-22 2 -50z m358 40 c0 -5 9 -10 19 -10 16 0 18 -4 12 -27 -5 -16 -13 -27 -20
-25 -6 1 -11 -7 -11 -19 0 -11 -4 -18 -9 -15 -12 8 -25 82 -16 96 8 13 25 13
25 0z m-1690 -142 c21 -43 15 -58 -19 -54 -17 3 -27 55 -17 82 8 22 14 17 36
-28z m2135 -29 c11 -16 2 -17 -25 -2 -24 12 -24 13 -3 13 12 0 25 -5 28 -11z
m-2150 -198 c3 -5 1 -12 -5 -16 -5 -3 -10 1 -10 9 0 18 6 21 15 7z m-50 -131
c0 -45 -30 -55 -45 -14 -14 36 -5 56 22 52 19 -2 23 -9 23 -38z"/>
<path d="M9093 5653 c-9 -3 -13 -31 -13 -89 l0 -84 85 0 c70 0 85 3 85 16 0 8
-17 22 -37 31 -35 14 -36 16 -18 29 25 18 59 18 75 -1 14 -17 40 -20 40 -6 0
24 -21 61 -35 61 -8 0 -17 11 -21 24 -5 23 -10 24 -77 24 -40 0 -78 -2 -84 -5z"/>
<path d="M9080 5194 l0 -55 25 23 c23 21 24 26 13 51 -23 49 -38 42 -38 -19z"/>
<path d="M4715 5500 c-28 -11 -56 -137 -34 -151 37 -23 116 -1 103 29 -4 9
-12 41 -19 71 -12 58 -18 64 -50 51z"/>
<path d="M12230 5365 l0 -5365 5705 0 5705 0 0 5365 0 5365 -5705 0 -5705 0 0
-5365z m1925 4579 c75 -19 128 -50 183 -105 44 -44 117 -179 104 -190 -8 -7
-242 -59 -265 -59 -8 0 -20 14 -27 30 -15 37 -71 87 -106 96 -14 4 -49 4 -79
2 -124 -10 -185 -126 -172 -323 12 -172 64 -235 194 -235 93 0 147 46 175 148
8 27 18 42 28 41 8 0 69 -17 135 -38 l120 -38 -2 -36 c-3 -52 -57 -151 -109
-204 -25 -24 -75 -59 -112 -76 -67 -32 -68 -32 -227 -32 -183 0 -233 11 -324
73 -70 47 -145 153 -173 247 -17 55 -22 96 -23 190 0 134 13 200 57 288 55
111 151 187 279 221 74 20 268 20 344 0z m5358 1 c82 -21 153 -60 212 -116 98
-93 138 -203 139 -384 0 -175 -36 -286 -126 -381 -101 -107 -201 -144 -388
-144 -188 0 -295 37 -391 132 -100 100 -147 248 -136 433 9 158 52 260 149
351 95 90 192 122 368 123 73 1 137 -5 173 -14z m-4073 -110 l0 -105 -260 0
-260 0 0 -80 0 -80 240 0 240 0 0 -100 0 -100 -240 0 -240 0 0 -100 0 -100
265 0 265 0 0 -115 0 -115 -425 0 -425 0 0 500 0 500 420 0 420 0 0 -105z
m497 66 c15 -22 98 -142 183 -268 l155 -228 3 268 2 267 150 0 150 0 0 -500 0
-500 -153 0 -153 0 -130 190 c-71 105 -153 225 -181 267 l-53 77 0 -267 0
-267 -150 0 -150 0 0 500 0 500 149 0 149 0 29 -39z m1723 -86 l0 -125 -160 0
-160 0 0 -375 0 -375 -160 0 -160 0 0 375 0 375 -155 0 -155 0 0 125 0 125
475 0 475 0 0 -125z m840 114 c77 -16 139 -63 174 -132 25 -49 29 -68 29 -132
-1 -128 -63 -221 -176 -263 l-47 -18 35 -17 c50 -24 105 -101 195 -274 l79
-153 -182 0 -182 0 -90 170 c-49 94 -100 181 -112 195 -19 20 -77 45 -105 45
-5 0 -8 -92 -8 -205 l0 -205 -160 0 -160 0 0 500 0 500 330 0 c199 0 349 -4
380 -11z m2634 -4 c125 -33 225 -131 268 -265 25 -79 36 -284 19 -375 -24
-126 -105 -246 -200 -294 -84 -43 -149 -51 -443 -51 l-278 0 0 500 0 500 288
0 c226 0 300 -3 346 -15z m1296 -90 l0 -105 -260 0 -260 0 0 -80 0 -80 240 0
240 0 0 -100 0 -100 -240 0 -240 0 0 -100 0 -100 265 0 265 0 0 -115 0 -115
-425 0 -425 0 0 500 0 500 420 0 420 0 0 -105z m-5935 -1797 c39 -50 72 -95
73 -100 2 -4 -37 -8 -86 -8 l-90 0 -37 49 -38 50 -39 -50 -40 -49 -90 0 c-71
0 -88 3 -81 13 5 6 40 51 78 100 l68 87 106 0 106 0 70 -92z m-1570 -174 c75
-19 128 -50 183 -105 44 -44 117 -179 104 -190 -8 -7 -242 -59 -265 -59 -8 0
-20 14 -27 30 -15 37 -71 87 -106 96 -14 4 -49 4 -79 2 -124 -10 -185 -126
-172 -323 12 -172 64 -235 194 -235 93 0 147 46 175 148 8 27 18 42 28 41 8 0
69 -17 135 -38 l120 -38 -2 -36 c-3 -52 -57 -151 -109 -204 -25 -24 -75 -59
-112 -76 -67 -32 -68 -32 -227 -32 -183 0 -233 11 -324 73 -70 47 -145 153
-173 247 -17 55 -22 96 -23 190 0 134 13 200 57 288 55 111 151 187 279 221
74 20 268 20 344 0z m3810 0 c75 -19 128 -50 183 -105 44 -44 117 -179 104
-190 -8 -7 -242 -59 -265 -59 -8 0 -20 14 -27 30 -15 37 -71 87 -106 96 -14 4
-49 4 -79 2 -124 -10 -185 -126 -172 -323 12 -172 64 -235 194 -235 93 0 147
46 175 148 8 27 18 42 28 41 8 0 69 -17 135 -38 l120 -38 -2 -36 c-3 -52 -57
-151 -109 -204 -25 -24 -75 -59 -112 -76 -67 -32 -68 -32 -227 -32 -183 0
-233 11 -324 73 -70 47 -145 153 -173 247 -17 55 -22 96 -23 190 0 134 13 200
57 288 55 111 151 187 279 221 74 20 268 20 344 0z m2709 -14 c86 -33 145 -96
174 -183 12 -37 22 -74 22 -81 0 -11 -32 -16 -144 -21 -79 -4 -149 -5 -154 -1
-6 3 -13 20 -17 36 -14 63 -101 103 -176 81 -57 -17 -78 -70 -41 -104 10 -9
83 -33 162 -53 169 -42 251 -77 309 -130 61 -54 83 -104 89 -194 9 -169 -92
-298 -273 -345 -38 -9 -103 -15 -180 -15 -234 0 -348 53 -418 195 -20 40 -51
155 -44 162 1 0 70 4 153 8 l151 7 7 -33 c16 -88 95 -146 184 -136 107 12 149
111 70 170 -14 11 -84 35 -155 54 -221 58 -325 126 -357 234 -20 66 -20 102
-1 165 17 59 70 125 129 159 76 45 137 55 301 52 128 -3 159 -7 209 -27z
m-5744 -490 l0 -500 -160 0 -160 0 0 500 0 500 160 0 160 0 0 -500z m1050 395
l0 -105 -260 0 -260 0 0 -80 0 -80 240 0 240 0 0 -100 0 -100 -240 0 -240 0 0
-100 0 -100 265 0 265 0 0 -115 0 -115 -425 0 -425 0 0 500 0 500 420 0 420 0
0 -105z m497 66 c15 -22 98 -142 183 -268 l155 -228 3 268 2 267 150 0 150 0
0 -500 0 -500 -153 0 -153 0 -130 190 c-71 105 -153 225 -181 267 l-53 77 0
-267 0 -267 -150 0 -150 0 0 500 0 500 149 0 149 0 29 -39z m2263 -461 l0
-500 -160 0 -160 0 0 500 0 500 160 0 160 0 0 -500z m1020 -2 l188 -498 -168
0 -168 0 -23 85 -24 85 -172 0 -172 0 -16 -57 c-9 -32 -20 -69 -24 -83 l-8
-25 -161 -3 c-89 -1 -162 0 -162 3 0 3 79 216 176 473 97 257 181 479 186 495
l10 27 176 -2 175 -3 187 -497z m914 -1588 c86 -33 145 -96 174 -183 12 -37
22 -74 22 -81 0 -11 -32 -16 -144 -21 -79 -4 -149 -5 -154 -1 -6 3 -13 20 -17
36 -14 63 -101 103 -176 81 -57 -17 -78 -70 -41 -104 10 -9 83 -33 162 -53
169 -42 251 -77 309 -130 61 -54 83 -104 89 -194 9 -169 -92 -298 -273 -345
-38 -9 -103 -15 -180 -15 -234 0 -348 53 -418 195 -20 40 -51 155 -44 162 1 0
70 4 153 8 l151 7 7 -33 c16 -88 95 -146 184 -136 107 12 149 111 70 170 -14
11 -84 35 -155 54 -221 58 -325 126 -357 234 -20 66 -20 102 -1 165 17 59 70
125 129 159 76 45 137 55 301 52 128 -3 159 -7 209 -27z m-7304 -165 l0 -175
165 0 165 0 0 175 0 175 160 0 160 0 0 -500 0 -500 -160 0 -160 0 0 200 0 200
-165 0 -165 0 0 -200 0 -200 -160 0 -160 0 0 500 0 500 160 0 160 0 0 -175z
m1170 -155 c0 -354 2 -372 51 -417 47 -43 155 -48 214 -9 15 10 35 36 46 59
17 38 19 70 19 370 l0 327 161 0 160 0 -3 -352 c-4 -314 -6 -359 -23 -403 -51
-137 -149 -225 -286 -255 -82 -18 -327 -9 -401 15 -109 35 -197 125 -235 238
-15 44 -18 105 -21 405 l-3 352 160 0 161 0 0 -330z m1321 100 c32 -124 66
-254 75 -289 l17 -65 12 40 c6 21 40 153 75 292 l65 252 207 0 208 0 0 -500 0
-500 -130 0 -130 0 -1 358 -1 357 -19 -70 c-11 -38 -52 -198 -93 -355 l-73
-285 -120 -3 -120 -3 -91 353 -90 353 -1 -352 -1 -353 -135 0 -135 0 0 500 0
500 212 -2 211 -3 58 -225z m1659 -272 l188 -498 -168 0 -168 0 -23 85 -24 85
-172 0 -172 0 -16 -57 c-9 -32 -20 -69 -24 -83 l-8 -25 -161 -3 c-89 -1 -162
0 -162 3 0 3 79 216 176 473 97 257 181 479 186 495 l10 27 176 -2 175 -3 187
-497z m607 463 c15 -22 98 -142 183 -268 l155 -228 3 268 2 267 150 0 150 0 0
-500 0 -500 -153 0 -153 0 -130 190 c-71 105 -153 225 -181 267 l-53 77 0
-267 0 -267 -150 0 -150 0 0 500 0 500 149 0 149 0 29 -39z m1633 -463 l188
-498 -168 0 -168 0 -23 85 -24 85 -172 0 -172 0 -16 -57 c-9 -32 -20 -69 -24
-83 l-8 -25 -161 -3 c-89 -1 -162 0 -162 3 0 3 79 216 176 473 97 257 181 479
186 495 l10 27 176 -2 175 -3 187 -497z m1578 -380 c-6 -178 -16 -222 -67
-286 -27 -34 -142 -112 -166 -112 -10 0 -81 119 -74 124 2 1 25 14 51 29 46
27 88 79 88 111 0 13 -12 16 -70 16 l-70 0 0 140 0 140 156 0 156 0 -4 -162z
m-2104 -1208 c86 -33 145 -96 174 -183 12 -37 22 -74 22 -81 0 -11 -32 -16
-144 -21 -79 -4 -149 -5 -154 -1 -6 3 -13 20 -17 36 -14 63 -101 103 -176 81
-57 -17 -78 -70 -41 -104 10 -9 83 -33 162 -53 169 -42 251 -77 309 -130 61
-54 83 -104 89 -194 9 -169 -92 -298 -273 -345 -38 -9 -103 -15 -180 -15 -234
0 -348 53 -418 195 -20 40 -51 155 -44 162 1 0 70 4 153 8 l151 7 7 -33 c16
-88 95 -146 184 -136 107 12 149 111 70 170 -14 11 -84 35 -155 54 -221 58
-325 126 -357 234 -20 66 -20 102 -1 165 17 59 70 125 129 159 76 45 137 55
301 52 128 -3 159 -7 209 -27z m-5444 -365 l0 -375 240 0 240 0 0 -125 0 -125
-400 0 -400 0 0 500 0 500 160 0 160 0 0 -375z m1450 270 l0 -105 -260 0 -260
0 0 -80 0 -80 240 0 240 0 0 -100 0 -100 -240 0 -240 0 0 -100 0 -100 265 0
265 0 0 -115 0 -115 -425 0 -425 0 0 500 0 500 420 0 420 0 0 -105z m1050 -20
l0 -125 -160 0 -160 0 0 -375 0 -375 -160 0 -160 0 0 375 0 375 -155 0 -155 0
0 125 0 125 475 0 475 0 0 -125z m840 114 c77 -16 139 -63 174 -132 25 -49 29
-68 29 -132 -1 -128 -63 -221 -176 -263 l-47 -18 34 -17 c50 -23 107 -101 181
-246 35 -69 70 -134 77 -143 11 -15 32 33 152 355 77 205 160 425 184 490 l45
117 175 -2 175 -3 187 -497 188 -498 -168 0 -168 0 -23 85 -24 85 -172 0 -172
0 -16 -57 c-9 -32 -20 -69 -24 -83 l-8 -25 -339 -2 -339 -3 -90 170 c-49 94
-100 181 -112 195 -19 20 -77 45 -105 45 -5 0 -8 -92 -8 -205 l0 -205 -160 0
-160 0 0 500 0 500 330 0 c199 0 349 -4 380 -11z m3790 -94 l0 -105 -260 0
-260 0 0 -80 0 -80 240 0 240 0 0 -100 0 -100 -240 0 -240 0 0 -100 0 -100
265 0 265 0 0 -115 0 -115 -425 0 -425 0 0 500 0 500 420 0 420 0 0 -105z
m-1416 -1985 c86 -33 145 -96 174 -183 12 -37 22 -74 22 -81 0 -11 -32 -16
-144 -21 -79 -4 -149 -5 -154 -1 -6 3 -13 20 -17 36 -14 63 -101 103 -176 81
-57 -17 -78 -70 -41 -104 10 -9 83 -33 162 -53 169 -42 251 -77 309 -130 61
-54 83 -104 89 -194 9 -169 -92 -298 -273 -345 -38 -9 -103 -15 -180 -15 -234
0 -348 53 -418 195 -20 40 -51 155 -44 162 1 0 70 4 153 8 l151 7 7 -33 c16
-88 95 -146 184 -136 107 12 149 111 70 170 -14 11 -84 35 -155 54 -221 58
-325 126 -357 234 -20 66 -20 102 -1 165 17 59 70 125 129 159 76 45 137 55
301 52 128 -3 159 -7 209 -27z m-4014 -492 l188 -498 -168 0 -168 0 -23 85
-24 85 -172 0 -172 0 -16 -57 c-9 -32 -20 -69 -24 -83 l-8 -25 -161 -3 c-89
-1 -162 0 -162 3 0 3 79 216 176 473 97 257 181 479 186 495 l10 27 176 -2
175 -3 187 -497z m990 491 c77 -16 139 -63 174 -132 25 -49 29 -68 29 -132 -1
-128 -63 -221 -176 -263 l-47 -18 35 -17 c50 -24 105 -101 195 -274 l79 -153
-182 0 -182 0 -90 170 c-49 94 -100 181 -112 195 -19 20 -77 45 -105 45 -5 0
-8 -92 -8 -205 l0 -205 -160 0 -160 0 0 500 0 500 330 0 c199 0 349 -4 380
-11z m1250 -114 l0 -125 -160 0 -160 0 0 -375 0 -375 -160 0 -160 0 0 375 0
375 -155 0 -155 0 0 125 0 125 475 0 475 0 0 -125z m970 20 l0 -105 -260 0
-260 0 0 -80 0 -80 240 0 240 0 0 -100 0 -100 -240 0 -240 0 0 -100 0 -100
265 0 265 0 0 -115 0 -115 -425 0 -425 0 0 500 0 500 420 0 420 0 0 -105z"/>
<path d="M19297 9720 c-105 -19 -157 -115 -157 -289 0 -180 69 -273 205 -273
88 0 137 31 173 111 23 49 26 70 26 171 1 104 -2 120 -26 171 -39 86 -123 126
-221 109z"/>
<path d="M18110 9640 l0 -100 53 0 c82 0 169 19 195 43 28 26 30 85 4 117 -21
26 -81 38 -189 39 l-63 1 0 -100z"/>
<path d="M20820 9441 l0 -271 28 0 c15 1 61 5 102 10 67 7 77 12 107 43 44 49
56 101 51 232 -6 187 -47 236 -210 250 l-78 7 0 -271z"/>
<path d="M20161 7580 c-1 -4 -23 -78 -51 -165 -27 -87 -50 -160 -50 -162 0 -2
47 -3 104 -3 l104 0 -24 78 c-41 135 -82 257 -83 252z"/>
<path d="M17921 5500 c-1 -4 -23 -78 -51 -165 -27 -87 -50 -160 -50 -162 0 -2
47 -3 104 -3 l104 0 -24 78 c-41 135 -82 257 -83 252z"/>
<path d="M20161 5500 c-1 -4 -23 -78 -51 -165 -27 -87 -50 -160 -50 -162 0 -2
47 -3 104 -3 l104 0 -24 78 c-41 135 -82 257 -83 252z"/>
<path d="M17510 3400 l0 -100 53 0 c82 0 169 19 195 43 28 26 30 85 4 117 -21
26 -81 38 -189 39 l-63 1 0 -100z"/>
<path d="M18721 3420 c-1 -4 -23 -78 -51 -165 -27 -87 -50 -160 -50 -162 0 -2
47 -3 104 -3 l104 0 -24 78 c-41 135 -82 257 -83 252z"/>
<path d="M15891 1340 c-1 -4 -23 -78 -51 -165 -27 -87 -50 -160 -50 -162 0 -2
47 -3 104 -3 l104 0 -24 78 c-41 135 -82 257 -83 252z"/>
<path d="M16860 1320 l0 -100 53 0 c82 0 169 19 195 43 28 26 30 85 4 117 -21
26 -81 38 -189 39 l-63 1 0 -100z"/>
</g>
</svg>
